<svg width="430" height="430" viewBox="0 0 430 430" fill="none" xmlns="http://www.w3.org/2000/svg">
<circle cx="215" cy="215" r="215" fill="#27AE60" fill-opacity="0.3"/>
<path d="M259.193 340.663C260.633 342.103 262.073 343.543 263.513 344.983C263.966 345.436 264.64 345.715 265.281 345.715C265.894 345.715 266.627 345.443 267.049 344.983C267.486 344.507 267.811 343.881 267.781 343.215C267.751 342.552 267.527 341.926 267.049 341.447C265.609 340.007 264.169 338.567 262.729 337.127C262.276 336.674 261.602 336.395 260.961 336.395C260.348 336.395 259.615 336.667 259.193 337.127C258.756 337.603 258.431 338.229 258.461 338.895C258.491 339.558 258.715 340.185 259.193 340.663Z" fill="#FAFAFA"/>
<path d="M274.871 275.557C274.871 275.701 272.705 275.817 270.033 275.817C267.361 275.817 265.195 275.7 265.195 275.557C265.195 275.413 267.361 275.297 270.033 275.297C272.705 275.296 274.871 275.413 274.871 275.557Z" fill="#455A64"/>
<path d="M308.677 164.11C306.961 158.921 310.058 140.315 305.982 140.28C300.787 140.236 302.28 161.315 302.269 163.2C302.258 165.031 299.533 165.063 299.635 163.364C299.78 160.922 300.592 136.868 295.392 137.291C292.509 137.525 292.872 142.776 292.872 142.776C292.872 142.776 294.485 166.833 292.022 166.949C289.521 167.069 288.684 153.033 288.481 148.096C288.286 143.361 286.294 141.481 284.119 143.07C281.797 144.766 282.374 158.905 282.495 163.65C282.615 168.394 283.177 181.411 277.686 175.084C272.194 168.757 265.644 165.905 263.367 166.351C261.09 166.799 260.966 170.15 263.318 171.242C265.219 172.125 267.953 174.567 269.937 176.485C271.571 178.065 272.738 180.019 273.973 181.922C274.855 183.28 276.342 186.004 277.281 189.898C278.368 194.404 281.378 198.211 285.471 200.387L285.213 209.202L310.569 206.998L311.055 190.319C311.313 177.572 313.543 168.998 314.889 161.415C317.034 149.324 315.475 148.951 314.026 149.02C310.826 149.172 310.352 169.174 308.677 164.11Z" fill="#E7BAA9"/>
<path d="M308.676 180.473C308.687 180.588 307.272 180.576 305.193 181.34C303.137 182.08 300.429 183.77 298.613 186.608C298.121 187.365 297.754 188.166 297.448 188.945L297.297 189.33L296.987 189.071C294.885 187.31 292.706 186.233 291.11 185.621C289.508 185.004 288.49 184.785 288.508 184.702C288.517 184.645 289.567 184.735 291.235 185.266C292.896 185.792 295.172 186.83 297.359 188.622L296.898 188.748C297.21 187.925 297.593 187.081 298.109 186.286C299.054 184.809 300.266 183.625 301.487 182.738C302.72 181.859 303.972 181.289 305.055 180.941C306.139 180.58 307.065 180.491 307.692 180.431C308.327 180.415 308.675 180.434 308.676 180.473Z" fill="#D99986"/>
<path d="M305.151 198.299C305.211 198.436 302.533 199.585 298.994 200.017C295.456 200.469 292.578 200.014 292.603 199.866C292.617 199.686 295.461 199.867 298.92 199.424C302.381 199.003 305.094 198.128 305.151 198.299Z" fill="#D99986"/>
<path d="M237.104 199.059C237.104 199.059 250.317 205.809 257.271 215.533C264.225 225.257 285.208 255.393 285.208 255.393L282.243 209.652L314.662 205.453C314.662 205.453 324.098 251.523 326.302 267.451C328.365 282.363 327.504 297.029 312.947 305.031C295.766 314.475 276.256 301.724 269.77 296.883C261.711 290.869 246.831 281.069 246.831 281.069L237.104 199.059Z" fill="#E8505B"/>
<path d="M220.818 193.356L211.57 183.02L171.134 179.918L165.893 188.389L180.066 276.837L173.684 366.17H226.367L220.818 193.356Z" fill="white"/>
<g opacity="0.3">
<path d="M176.128 344.923C177.517 343.439 179.798 341.397 181.831 341.352C196.386 341.032 211.254 339.576 225.809 339.256L226.368 366.17L219.281 362.856C218.88 359.8 218.367 356.147 215.577 354.838C213.998 354.097 212.15 354.387 210.439 354.725C205.182 355.765 199.959 357.123 194.61 357.455C189.261 357.788 183.663 357.008 179.171 354.086C177.629 353.083 176.201 351.787 175.478 350.097C174.751 348.405 174.871 346.266 176.128 344.923Z" fill="#F1F0F1"/>
</g>
<path d="M211.569 183.02L237.47 199.783L242.941 217.764L248.186 273.817L242.411 331.194L252.39 366.17H226.366L226.313 352.37L223.541 255.233L220.817 193.356L211.569 183.02Z" fill="#E8505B"/>
<path d="M225.512 268.626C225.527 268.635 225.675 268.386 225.943 267.903C226.228 267.378 226.612 266.669 227.096 265.776C227.576 264.842 228.041 263.641 228.643 262.274C228.928 261.584 229.162 260.82 229.449 260.023C229.726 259.223 230.036 258.382 230.268 257.471C232.451 250.274 233.895 239.877 233.591 228.412C233.561 227.524 233.527 226.646 233.466 225.771L233.456 225.619L233.314 225.559C231.935 224.98 230.58 224.411 229.256 223.854L229.315 224.274C230.708 223.154 232.062 222.066 233.367 221.017L233.452 220.949L233.456 220.849C233.646 216.528 232.596 212.641 231.61 209.256C230.59 205.864 229.472 202.941 228.495 200.54C227.513 198.139 226.661 196.261 226.051 194.984C225.746 194.346 225.505 193.857 225.335 193.53C225.166 193.203 225.069 193.037 225.057 193.043C225.044 193.049 225.116 193.227 225.261 193.566C225.424 193.941 225.637 194.433 225.906 195.051C226.469 196.346 227.277 198.241 228.218 200.651C229.154 203.062 230.234 205.989 231.22 209.371C232.174 212.741 233.183 216.623 232.981 220.81L233.07 220.643C231.762 221.688 230.405 222.772 229.008 223.888L228.684 224.147L229.067 224.308C230.391 224.867 231.744 225.438 233.123 226.019L232.971 225.808C233.03 226.666 233.063 227.544 233.093 228.426C233.395 239.839 232.014 250.192 229.93 257.372C229.71 258.282 229.413 259.121 229.149 259.921C228.876 260.717 228.656 261.482 228.384 262.173C227.81 263.541 227.373 264.748 226.922 265.691C226.475 266.599 226.12 267.319 225.857 267.853C225.616 268.352 225.497 268.617 225.512 268.626Z" fill="#263238"/>
<path d="M243.704 305.12C243.721 305.124 243.798 304.864 243.928 304.366C244.064 303.821 244.247 303.093 244.475 302.179C244.715 301.23 244.99 300.064 245.258 298.699C245.532 297.336 245.881 295.79 246.155 294.06C246.458 292.335 246.781 290.445 247.041 288.401C247.351 286.365 247.563 284.174 247.809 281.871C248.225 277.259 248.505 272.17 248.51 266.825C248.485 261.477 248.187 256.389 247.753 251.778C247.498 249.476 247.278 247.286 246.961 245.251C246.693 243.209 246.364 241.319 246.054 239.596C245.773 237.867 245.419 236.323 245.139 234.961C244.867 233.597 244.587 232.433 244.343 231.484C244.111 230.571 243.926 229.844 243.787 229.3C243.655 228.802 243.577 228.543 243.56 228.547C243.543 228.551 243.588 228.819 243.689 229.324C243.804 229.873 243.959 230.607 244.153 231.528C244.367 232.482 244.618 233.651 244.864 235.017C245.116 236.382 245.446 237.928 245.704 239.657C245.991 241.38 246.3 243.269 246.549 245.308C246.848 247.341 247.052 249.526 247.293 251.823C247.7 256.423 247.984 261.496 248.009 266.827C248.004 272.156 247.739 277.229 247.349 281.83C247.116 284.127 246.92 286.313 246.629 288.347C246.388 290.387 246.086 292.277 245.805 294.001C245.554 295.73 245.23 297.278 244.982 298.644C244.741 300.012 244.494 301.181 244.284 302.136C244.094 303.058 243.942 303.792 243.828 304.342C243.731 304.848 243.687 305.115 243.704 305.12Z" fill="#263238"/>
<path d="M237.433 352.036C237.378 352.065 237.769 352.976 238.559 354.369C239.347 355.761 240.562 357.62 242.111 359.514C243.663 361.406 245.247 362.963 246.457 364.01C247.667 365.059 248.483 365.621 248.522 365.573C248.57 365.514 247.835 364.856 246.697 363.75C245.558 362.645 244.033 361.068 242.498 359.197C240.967 357.325 239.721 355.52 238.861 354.185C238.001 352.851 237.5 352 237.433 352.036Z" fill="#263238"/>
<g opacity="0.3">
<path d="M224.506 305.101C221.766 303.673 218.414 304.418 215.533 305.533C212.652 306.648 209.783 308.129 206.694 308.1C202.502 308.061 196.552 306.532 194.357 302.96C192.162 299.388 189.936 293.932 189.045 289.835C185.703 274.458 184.946 260.973 181.604 245.597C179.785 237.228 177.478 227.545 174.372 219.564C171.364 211.836 168.58 203.835 166.219 195.885C166.633 213.922 167.053 232.021 169.84 249.846C171.632 261.308 174.397 272.611 175.904 284.114C177.194 293.966 177.554 303.913 177.913 313.843L187.287 325.302L213.117 325.827L226.608 308.427L224.506 305.101Z" fill="#D0CECF"/>
</g>
<path d="M130.891 198.297C120.986 202.133 113.638 210.636 111.289 220.994C103.707 254.43 90.7267 298.904 90.5237 313.252C90.2647 331.527 98.2547 344.036 108.687 346.343C116.936 348.167 191.71 344.074 191.71 344.074L195.244 312.871L134.657 307.3L142.949 260.972L134.743 196.805L130.891 198.297Z" fill="#E8505B"/>
<path d="M134.741 196.805L151.483 189.964L170.619 179.623L170.794 180.178C168.634 183.879 166.338 190.708 167.145 194.917L181.832 271.539L178.5 327.519L173.685 366.17H125.454L142.948 325.007L134.341 247.697L134.741 196.805Z" fill="#E8505B"/>
<path d="M143.432 256.291C143.415 256.291 143.37 256.47 143.302 256.806C143.224 257.2 143.128 257.691 143.01 258.289C142.76 259.652 142.421 261.504 142.008 263.762C141.191 268.454 140.083 274.816 138.858 281.845C137.685 288.886 136.623 295.256 135.84 299.954C135.486 302.222 135.195 304.082 134.981 305.451C134.897 306.056 134.828 306.551 134.772 306.95C134.73 307.294 134.716 307.475 134.733 307.478C134.75 307.481 134.797 307.305 134.872 306.967C134.952 306.573 135.052 306.083 135.173 305.484C135.426 304.122 135.77 302.271 136.189 300.014C137.025 295.391 138.146 288.998 139.352 281.93C140.557 274.864 141.618 268.462 142.357 263.822C142.706 261.553 142.992 259.692 143.202 258.322C143.283 257.716 143.348 257.219 143.401 256.82C143.439 256.471 143.449 256.291 143.432 256.291Z" fill="#263238"/>
<path d="M161.432 185.02C161.424 185.018 161.402 185.081 161.364 185.206C161.322 185.358 161.271 185.541 161.209 185.766C161.087 186.262 160.87 186.988 160.673 187.945C160.242 189.852 159.741 192.656 159.395 196.191C159.045 199.725 158.896 203.99 159.077 208.772C159.241 213.554 159.747 218.844 160.469 224.448L160.492 224.626L160.669 224.659C162.414 224.983 164.263 225.326 166.142 225.674L165.955 225.336C165.644 226.176 165.32 227.081 165.07 228.016C163.29 234.516 164.072 241.09 165.695 246.59C167.346 252.137 169.866 256.735 172.125 260.442C174.409 264.148 176.475 266.999 177.895 268.971C178.598 269.924 179.152 270.676 179.555 271.223C179.735 271.457 179.881 271.647 179.999 271.8C180.101 271.928 180.157 271.992 180.164 271.987C180.171 271.982 180.129 271.909 180.041 271.771C179.934 271.61 179.801 271.411 179.638 271.165C179.254 270.605 178.725 269.835 178.055 268.859C176.686 266.854 174.666 263.975 172.429 260.259C170.216 256.544 167.747 251.955 166.139 246.461C164.556 241.011 163.807 234.525 165.554 228.15C165.799 227.232 166.117 226.346 166.421 225.521L166.526 225.237L166.234 225.183C164.355 224.837 162.505 224.496 160.76 224.175L160.96 224.385C160.229 218.792 159.704 213.52 159.512 208.756C159.302 203.993 159.414 199.745 159.719 196.221C160.02 192.696 160.47 189.894 160.846 187.982C161.017 187.022 161.204 186.291 161.298 185.789C161.343 185.561 161.379 185.374 161.409 185.219C161.431 185.088 161.439 185.022 161.432 185.02Z" fill="#263238"/>
<path d="M161.434 263.611V251.387C161.434 251.387 161.275 248.371 163.815 249.006C166.355 249.641 165.879 254.403 165.879 254.403C165.879 254.403 166.355 272.976 165.244 272.818C164.133 272.659 163.706 271.23 163.706 271.23V264.086L161.434 263.611Z" fill="#E8505B"/>
<path d="M150.869 264.374C150.869 264.512 153.801 264.624 157.417 264.624C161.034 264.624 163.966 264.512 163.966 264.374C163.966 264.236 161.034 264.123 157.417 264.123C153.801 264.123 150.869 264.236 150.869 264.374Z" fill="#263238"/>
<path d="M126.681 205.548C126.671 205.585 127.165 205.751 128.051 206.055C128.93 206.379 130.197 206.864 131.683 207.627C134.644 209.133 138.509 211.868 141.508 215.999C142.269 217.019 142.911 218.086 143.44 219.145C143.93 220.23 144.329 221.315 144.602 222.382C145.182 224.508 145.431 226.493 145.577 228.158C145.719 229.826 145.747 231.184 145.758 232.121C145.768 233.059 145.758 233.579 145.793 233.581C145.827 233.584 145.903 233.066 145.953 232.125C146.002 231.184 146.029 229.818 145.93 228.132C145.828 226.449 145.614 224.437 145.048 222.263C144.782 221.173 144.383 220.057 143.884 218.935C143.339 217.828 142.687 216.741 141.913 215.703C138.855 211.491 134.88 208.751 131.841 207.309C130.314 206.577 129.015 206.138 128.111 205.869C127.2 205.62 126.689 205.518 126.681 205.548Z" fill="#263238"/>
<path d="M191.709 344.074C191.696 344.073 191.706 343.872 191.737 343.486C191.776 343.065 191.827 342.5 191.893 341.785C192.05 340.259 192.272 338.096 192.552 335.376C193.156 329.841 194.005 322.049 195.009 312.845L195.224 313.107C188.427 312.531 180.782 311.883 172.721 311.2C157.885 309.894 144.458 308.712 134.692 307.852C129.83 307.37 125.961 308.812 123.584 310.043C122.379 310.674 121.514 311.287 120.93 311.701C120.664 311.904 120.451 312.067 120.281 312.196C120.133 312.306 120.054 312.359 120.048 312.353C120.048 312.353 121.09 311.218 123.488 309.864C125.859 308.566 129.768 307.042 134.724 307.484C144.494 308.305 157.927 309.433 172.77 310.68C180.828 311.38 188.471 312.044 195.265 312.634L195.508 312.655L195.48 312.896C194.4 322.091 193.485 329.876 192.836 335.406C192.5 338.12 192.233 340.278 192.045 341.8C191.949 342.512 191.873 343.073 191.816 343.493C191.757 343.878 191.722 344.076 191.709 344.074Z" fill="#263238"/>
<path d="M175.437 344.906C175.401 344.909 175.339 344.44 175.258 343.588C175.172 342.737 175.092 341.502 175.032 339.975C174.909 336.92 174.935 332.686 175.345 328.034C175.76 323.381 176.479 319.208 177.138 316.222C177.466 314.729 177.762 313.527 177.996 312.705C178.226 311.882 178.369 311.431 178.404 311.44C178.439 311.449 178.362 311.916 178.193 312.752C178.009 313.69 177.777 314.878 177.499 316.295C176.935 319.289 176.278 323.45 175.864 328.08C175.457 332.709 175.373 336.92 175.401 339.966C175.425 341.41 175.445 342.621 175.461 343.576C175.48 344.431 175.473 344.904 175.437 344.906Z" fill="#263238"/>
<path d="M184.014 335.122C184.008 335.096 184.264 334.992 184.757 334.996C185.242 335 185.98 335.154 186.701 335.69C187.411 336.2 188.108 337.213 188.023 338.449C187.964 339.639 187.224 340.971 185.882 341.508C184.526 342.013 183.077 341.513 182.249 340.65C181.367 339.77 181.268 338.519 181.525 337.683C181.771 336.815 182.281 336.249 182.679 335.97C183.083 335.684 183.358 335.633 183.366 335.658C183.386 335.699 183.145 335.814 182.808 336.127C182.475 336.433 182.058 336.985 181.882 337.773C181.698 338.544 181.826 339.587 182.59 340.314C183.312 341.039 184.582 341.445 185.694 341.023C186.802 340.587 187.473 339.443 187.544 338.419C187.642 337.369 187.089 336.483 186.473 335.98C185.852 335.461 185.191 335.262 184.741 335.199C184.284 335.132 184.02 335.166 184.014 335.122Z" fill="#263238"/>
<path d="M170.832 179.359C170.832 179.359 170.728 179.43 170.514 179.554C170.286 179.684 169.97 179.864 169.557 180.1C168.694 180.582 167.439 181.284 165.806 182.196C162.5 184.025 157.678 186.693 151.548 190.084L151.542 190.087L151.534 190.09C144.907 192.866 136.808 196.258 127.512 200.152C122.819 201.946 118.503 205.451 115.421 210.145C113.849 212.473 112.588 215.091 111.602 217.87C110.614 220.645 109.88 223.606 109.526 226.646L109.524 226.667L109.521 226.68C105.079 245.684 100.035 267.493 95.1528 290.664C94.1038 295.648 93.1088 300.582 92.1838 305.453C91.9418 306.669 91.7378 307.887 91.5178 309.097C91.3058 310.308 91.0678 311.514 90.9178 312.716C90.5898 315.119 90.4338 317.533 90.5508 319.918C90.7558 324.682 91.8018 329.341 93.7278 333.504C94.6918 335.581 95.8748 337.536 97.3038 339.253C98.7508 340.955 100.451 342.406 102.319 343.533C106.06 345.814 110.385 346.746 114.534 346.528C118.714 346.443 122.772 346.361 126.696 346.282C134.543 346.087 141.851 345.859 148.523 345.634C161.855 345.147 172.646 344.752 180.123 344.479C183.843 344.338 186.734 344.229 188.714 344.154C189.685 344.122 190.429 344.097 190.949 344.079C191.452 344.065 191.711 344.071 191.711 344.071C191.711 344.071 191.454 344.101 190.951 344.132C190.432 344.161 189.689 344.203 188.718 344.258C186.739 344.356 183.849 344.498 180.131 344.681C172.673 345.028 161.879 345.506 148.536 346.001C141.865 346.249 134.556 346.499 126.707 346.713C122.782 346.801 118.722 346.892 114.541 346.985C110.349 347.215 105.891 346.271 102.07 343.942C100.156 342.791 98.4128 341.308 96.9298 339.567C95.4638 337.809 94.2588 335.821 93.2758 333.711C91.3138 329.483 90.2518 324.763 90.0398 319.937C89.9208 317.521 90.0758 315.077 90.4068 312.644C90.5588 311.421 90.7958 310.22 91.0078 309.006C91.2268 307.794 91.4318 306.573 91.6728 305.356C92.5968 300.479 93.5918 295.542 94.6408 290.556C99.5258 267.375 104.589 245.571 109.066 226.571L109.061 226.605C109.429 223.494 110.174 220.528 111.179 217.718C112.181 214.91 113.463 212.263 115.063 209.906C118.193 205.156 122.614 201.591 127.363 199.796C136.677 195.941 144.791 192.583 151.431 189.835L151.417 189.842C157.573 186.5 162.416 183.87 165.737 182.067C167.384 181.182 168.651 180.501 169.521 180.033C169.942 179.811 170.264 179.641 170.496 179.519C170.716 179.408 170.832 179.359 170.832 179.359Z" fill="#263238"/>
<path d="M339.281 272.824L263.224 353.949L189.045 354.405L187.287 351.036L260.403 271.811L339.281 272.824Z" fill="#263238"/>
<path d="M267.4 271.81C267.4 271.81 272.341 271.776 273.804 273.533C275.521 275.596 278.792 280.229 271.629 292.048C268.767 296.771 254.738 313.081 248.968 329.718C243.573 345.272 246.035 350.416 246.035 350.416L299.558 348.747L300.601 346.813C300.601 346.813 323.871 283.769 317.704 271.81C314.866 266.308 267.021 269.791 267.4 271.81Z" fill="#E0E0E0"/>
<path d="M308.452 347.109L250.873 347.588C250.187 333.002 255.247 322.419 262.777 309.908C265.661 305.115 269.596 301.019 272.469 296.219C275.48 291.187 277.263 285.427 277.622 279.574C277.765 277.236 277.624 274.704 276.184 272.857C274.744 271.009 269.616 270.904 267.401 271.811C267.401 271.811 270.739 269.114 275.875 268.686C280.53 268.298 318.585 268.559 325.67 268.611C326.499 268.617 329.984 269.049 330.72 269.43C335.878 272.106 336.939 279.133 336.21 284.19C335.518 288.989 332.548 293.506 328.815 298.561C327.743 300.013 326.75 301.521 325.848 303.084C321.917 309.896 311.068 328.991 309.118 335.582C307.507 341.031 308.452 347.109 308.452 347.109Z" fill="#FAFAFA"/>
<path d="M308.452 346.983C303.83 347.022 299.207 347.06 294.585 347.099C285.758 347.172 276.931 347.246 268.104 347.319C264.399 347.35 260.695 347.381 256.99 347.412C255.749 347.422 254.508 347.433 253.267 347.443C252.657 347.448 251.783 347.618 251.189 347.46C251.136 347.446 250.913 347.503 250.875 347.463C250.866 347.453 250.955 346.395 250.952 346.273C250.94 345.771 250.935 345.268 250.937 344.765C250.941 343.786 250.971 342.807 251.03 341.829C251.256 338.08 251.916 334.369 252.973 330.765C255.104 323.502 258.778 316.806 262.657 310.348C264.786 306.803 267.425 303.633 269.866 300.306C272.185 297.145 274.164 293.797 275.524 290.11C276.855 286.504 277.677 282.636 277.782 278.787C277.85 276.302 277.49 272.905 274.881 271.793C273.715 271.296 272.387 271.146 271.13 271.13C270.275 271.119 268.305 271.027 267.577 271.609C267.371 271.774 267.481 271.831 267.628 271.793C267.728 271.767 267.887 271.609 267.969 271.554C268.36 271.289 268.767 271.048 269.182 270.822C270.576 270.064 272.079 269.504 273.627 269.156C276.728 268.46 280.087 268.664 283.243 268.637C293.112 268.551 302.982 268.605 312.851 268.655C316.648 268.674 320.445 268.697 324.243 268.724C326.042 268.737 327.812 268.867 329.581 269.235C332.597 269.863 334.564 272.89 335.456 275.642C336.408 278.581 336.55 281.881 335.962 284.91C335.203 288.822 333.053 292.326 330.817 295.559C328.796 298.481 326.725 301.3 324.954 304.386C323.725 306.527 322.507 308.675 321.302 310.829C318.411 315.996 315.567 321.196 312.93 326.498C310.664 331.055 308.468 335.557 308.123 340.718C307.981 342.843 308.013 345.029 308.334 347.139C308.358 347.298 308.599 347.23 308.575 347.073C307.776 341.815 308.602 336.593 310.722 331.759C312.98 326.608 315.663 321.636 318.349 316.699C320.796 312.201 323.303 307.733 325.868 303.301C329.601 296.851 335.603 291.225 336.428 283.459C336.943 278.611 335.823 271.504 330.727 269.294C329.123 268.598 326.955 268.495 325.219 268.48C323.834 268.468 322.449 268.46 321.064 268.451C311.37 268.388 301.675 268.34 291.98 268.349C287.802 268.353 283.622 268.357 279.445 268.433C275.648 268.502 272.021 268.872 268.644 270.837C268.186 271.103 267.731 271.388 267.316 271.718C267.22 271.795 267.324 271.97 267.438 271.927C269.506 271.14 272.193 271.149 274.288 271.835C277.318 272.827 277.643 276.434 277.522 279.178C277.232 285.741 275.025 292.172 271.425 297.645C269.643 300.354 267.584 302.862 265.653 305.463C263.817 307.937 262.223 310.543 260.683 313.208C257.863 318.09 255.257 323.131 253.438 328.48C251.341 334.645 250.472 341.081 250.753 347.582C250.756 347.649 250.808 347.708 250.878 347.707C257.363 347.653 263.849 347.599 270.334 347.545C280.67 347.459 291.007 347.373 301.343 347.287C303.714 347.267 306.085 347.248 308.457 347.228C308.613 347.231 308.613 346.981 308.452 346.983Z" fill="#263238"/>
<path d="M305.048 335.084C305.048 335.228 294.894 335.344 282.37 335.344C269.842 335.344 259.69 335.227 259.69 335.084C259.69 334.94 269.842 334.824 282.37 334.824C294.894 334.824 305.048 334.94 305.048 335.084Z" fill="#263238"/>
<path d="M306.32 327.502C306.32 327.646 296.165 327.762 283.642 327.762C271.114 327.762 260.962 327.645 260.962 327.502C260.962 327.358 271.114 327.242 283.642 327.242C296.165 327.242 306.32 327.359 306.32 327.502Z" fill="#263238"/>
<path d="M312.415 319.362C312.415 319.506 302.261 319.622 289.737 319.622C277.209 319.622 267.057 319.505 267.057 319.362C267.057 319.218 277.209 319.102 289.737 319.102C302.261 319.102 312.415 319.218 312.415 319.362Z" fill="#263238"/>
<path d="M316.17 311.924C316.17 312.068 306.016 312.184 293.492 312.184C280.964 312.184 270.812 312.067 270.812 311.924C270.812 311.781 280.964 311.664 293.492 311.664C306.016 311.663 316.17 311.78 316.17 311.924Z" fill="#263238"/>
<path d="M318.672 305.123C318.672 305.267 308.518 305.383 295.994 305.383C283.466 305.383 273.314 305.266 273.314 305.123C273.314 304.98 283.466 304.863 295.994 304.863C308.517 304.862 318.672 304.979 318.672 305.123Z" fill="#263238"/>
<path d="M324.789 296.186C324.789 296.33 314.634 296.446 302.111 296.446C289.583 296.446 279.431 296.329 279.431 296.186C279.431 296.042 289.583 295.926 302.111 295.926C314.635 295.926 324.789 296.042 324.789 296.186Z" fill="#263238"/>
<path d="M330.629 287.635C330.629 287.779 320.475 287.895 307.951 287.895C295.423 287.895 285.271 287.779 285.271 287.635C285.271 287.491 295.423 287.375 307.951 287.375C320.475 287.375 330.629 287.492 330.629 287.635Z" fill="#263238"/>
<path d="M330.212 279.5C330.212 279.644 320.057 279.76 307.534 279.76C295.006 279.76 284.854 279.643 284.854 279.5C284.854 279.356 295.006 279.24 307.534 279.24C320.058 279.24 330.212 279.356 330.212 279.5Z" fill="#263238"/>
<path d="M260.403 271.809C260.41 271.801 260.516 271.877 260.718 272.033C260.943 272.211 261.238 272.445 261.612 272.741C262.421 273.4 263.572 274.337 265.058 275.546L265.15 275.621L265.068 275.711C258.873 282.48 245.458 296.95 229.89 313.641C219.142 325.415 208.796 335.5 201.31 342.773C197.561 346.407 194.505 349.326 192.382 351.331C191.337 352.309 190.515 353.078 189.926 353.628C189.659 353.87 189.445 354.063 189.277 354.215C189.129 354.345 189.05 354.408 189.044 354.402C189.038 354.396 189.104 354.319 189.241 354.177C189.4 354.016 189.601 353.81 189.854 353.553C190.426 352.986 191.225 352.194 192.242 351.186C194.349 349.111 197.353 346.154 201.053 342.511C208.477 335.166 218.763 325.059 229.51 313.287C245.078 296.596 258.58 282.208 264.902 275.557L264.912 275.722C263.456 274.476 262.329 273.511 261.536 272.833C261.177 272.518 260.895 272.269 260.679 272.08C260.489 271.908 260.396 271.817 260.403 271.809Z" fill="#455A64"/>
<path d="M195.17 316.459L206.023 316.454C206.023 316.454 213.364 310.058 215.033 309.56C218.524 308.518 227.542 307.418 227.542 307.418L221.383 314.092C219.96 315.634 217.335 317.025 218.892 317.025C220.449 317.025 230.183 317.025 230.183 317.025C230.183 317.025 241.738 311.482 243.455 312.496C244.897 313.348 245.399 314.884 243.923 317.025C242.447 319.166 232.324 324.228 231.156 324.617L227.847 325.59L230.962 326.563L245.687 321.418C246.643 321.248 247.963 321.089 248.394 321.643C248.988 322.406 249.347 323.419 248.317 324.49C246.495 326.385 241.654 329.728 241.654 329.728C241.654 329.728 244.005 333.181 242.058 334.933C240.111 336.685 234.466 341.941 234.466 341.941C234.466 341.941 233.882 344.861 232.13 346.224C230.378 347.587 211.105 347.587 209.743 347.587C208.38 347.587 200.593 343.11 200.593 343.11L192.139 342.488L195.17 316.459Z" fill="#E7BAA9"/>
<path d="M228.744 335.297C228.739 335.343 229.525 335.556 230.852 335.581C231.512 335.586 232.325 335.491 233.156 335.178C233.989 334.873 234.828 334.385 235.664 333.842C237.333 332.757 238.826 331.753 239.897 331.008C240.967 330.263 241.611 329.775 241.577 329.723C241.543 329.671 240.837 330.063 239.723 330.74C238.609 331.416 237.086 332.379 235.42 333.462C234.59 334 233.788 334.48 233.007 334.789C232.23 335.106 231.482 335.225 230.842 335.262C229.562 335.319 228.75 335.22 228.744 335.297Z" fill="#AA6550"/>
<path d="M227.86 342.506C227.823 342.531 228.281 343.064 229.323 343.327C230.334 343.597 231.915 343.488 233.296 342.66C234.685 341.889 235.774 340.96 236.523 340.259C237.266 339.548 237.662 339.05 237.621 339.009C237.519 338.892 235.749 340.742 233.08 342.264C231.765 343.049 230.357 343.182 229.388 343.015C228.411 342.853 227.904 342.44 227.86 342.506Z" fill="#AA6550"/>
<path d="M222.402 326.556C222.411 326.676 223.792 326.664 225.453 326.319C227.115 325.978 228.388 325.443 228.348 325.328C228.308 325.206 226.993 325.542 225.361 325.876C223.731 326.216 222.391 326.428 222.402 326.556Z" fill="#AA6550"/>
<path d="M148.732 109.982C145.895 104.93 140.977 101.09 135.388 99.5617C129.799 98.0337 123.611 98.8387 118.599 101.745C114.283 104.247 110.695 108.766 110.985 113.747C111.258 118.443 114.756 122.233 118.053 125.587C112.802 127.775 110.17 134.433 111.886 139.857C113.602 145.281 119.025 149.103 124.69 149.627C130.355 150.151 136.058 147.685 140.145 143.729C144.232 139.773 146.816 134.454 148.228 128.944" fill="#263238"/>
<path d="M130.771 122.102C130.771 122.102 129.808 122.6 127.89 122.828C125.999 123.064 123.073 122.834 120.011 121.189C118.503 120.359 116.945 119.203 115.695 117.583C114.426 115.982 113.48 113.948 113.072 111.687C112.239 107.207 113.474 101.753 117.197 97.9074C120.919 94.0634 126.165 92.5014 130.699 92.7004C135.28 92.8894 139.263 94.7434 141.679 97.2284C144.151 99.7224 144.874 102.655 144.921 104.548C144.94 105.513 144.828 106.259 144.705 106.749C144.656 106.997 144.584 107.178 144.548 107.302C144.507 107.425 144.482 107.486 144.474 107.484C144.402 107.473 144.813 106.454 144.719 104.557C144.612 102.704 143.849 99.8704 141.419 97.4884C139.044 95.1094 135.144 93.3374 130.683 93.1794C126.264 93.0104 121.168 94.5524 117.574 98.2674C113.981 101.973 112.764 107.262 113.547 111.6C113.93 113.79 114.827 115.759 116.038 117.316C117.231 118.895 118.733 120.036 120.191 120.865C123.154 122.51 126.008 122.796 127.873 122.625C129.762 122.465 130.752 122.033 130.771 122.102Z" fill="#263238"/>
<path d="M137.223 126.458C137.24 126.49 136.998 126.647 136.542 126.906C136.091 127.174 135.397 127.49 134.515 127.81C133.634 128.138 132.543 128.415 131.313 128.611C130.08 128.782 128.706 128.857 127.27 128.757C125.835 128.639 124.487 128.358 123.294 128.004C122.107 127.625 121.071 127.187 120.249 126.73C119.425 126.281 118.786 125.864 118.381 125.531C117.969 125.206 117.753 125.015 117.775 124.986C117.832 124.908 118.756 125.603 120.415 126.401C121.241 126.807 122.266 127.199 123.43 127.543C124.6 127.863 125.912 128.122 127.309 128.237C128.706 128.334 130.042 128.275 131.247 128.135C132.449 127.97 133.521 127.737 134.399 127.46C136.16 126.92 137.178 126.373 137.223 126.458Z" fill="#455A64"/>
<path d="M110.968 114.578C110.94 114.568 111.045 114.128 111.371 113.378C111.707 112.648 112.284 111.541 113.491 110.639C114.693 109.729 116.437 109.215 118.358 109.003C120.294 108.794 122.428 108.955 124.623 109.298C129.031 109.998 132.803 111.576 135.335 112.994C136.607 113.702 137.582 114.362 138.241 114.838C138.892 115.324 139.235 115.614 139.215 115.642C139.193 115.673 138.81 115.438 138.128 115.006C137.439 114.585 136.442 113.978 135.162 113.319C132.612 111.999 128.879 110.502 124.541 109.813C122.378 109.475 120.284 109.304 118.406 109.481C116.538 109.661 114.853 110.123 113.707 110.938C112.547 111.746 111.938 112.776 111.554 113.467C111.178 114.176 111.008 114.593 110.968 114.578Z" fill="#455A64"/>
<path d="M141.512 134.643C141.527 134.652 141.476 134.768 141.364 134.98C141.256 135.196 141.073 135.498 140.825 135.883C140.324 136.645 139.509 137.703 138.305 138.82C137.103 139.933 135.486 141.084 133.484 141.949C131.484 142.802 129.099 143.349 126.582 143.317C124.065 143.299 121.685 142.735 119.707 141.806C117.73 140.868 116.199 139.557 115.18 138.26C114.159 136.952 113.678 135.666 113.505 134.765C113.417 134.312 113.377 133.959 113.381 133.716C113.373 133.475 113.378 133.349 113.396 133.348C113.456 133.343 113.461 133.852 113.702 134.717C113.931 135.581 114.447 136.796 115.467 138.029C116.486 139.251 117.989 140.488 119.911 141.371C121.826 142.242 124.148 142.779 126.587 142.796C129.03 142.827 131.345 142.311 133.298 141.506C135.253 140.69 136.852 139.6 138.06 138.545C140.484 136.413 141.42 134.573 141.512 134.643Z" fill="#455A64"/>
<path d="M143.414 139.846C143.44 139.869 143.064 140.354 142.322 141.176C141.579 141.998 140.473 143.16 139.013 144.503C138.284 145.175 137.46 145.885 136.542 146.609C135.628 147.327 134.604 148.082 133.405 148.663C131.024 149.839 128.082 150.461 125.026 150.293C121.987 150.115 119.06 149.203 116.971 147.51C114.881 145.844 113.534 143.788 112.735 141.963C111.917 140.13 111.685 138.496 111.629 137.39C111.601 136.832 111.621 136.401 111.661 136.109C111.689 135.817 111.712 135.666 111.73 135.668C111.748 135.669 111.76 135.824 111.766 136.114C111.761 136.404 111.774 136.83 111.832 137.376C111.949 138.459 112.231 140.044 113.072 141.812C113.892 143.572 115.237 145.548 117.266 147.131C119.279 148.732 122.097 149.597 125.055 149.773C128.022 149.937 130.881 149.346 133.195 148.232C134.358 147.683 135.355 146.969 136.278 146.268C137.196 145.567 138.028 144.88 138.767 144.229C140.248 142.93 141.39 141.812 142.175 141.037C142.96 140.26 143.386 139.821 143.414 139.846Z" fill="#455A64"/>
<path d="M151.825 109.387L153.286 110.535C152.696 108.048 149.92 106.48 147.378 106.749C144.836 107.018 142.638 108.789 141.286 110.958C139.934 113.127 139.311 115.664 138.841 118.176C138.056 122.369 137.667 126.85 139.338 130.776C141.008 134.702 145.321 137.784 149.46 136.753C153.581 135.727 155.891 131.242 156.502 127.04C157.403 120.849 155.673 114.319 151.825 109.387Z" fill="#E8505B"/>
<path d="M146.096 128.398C146.167 128.51 144.447 129.384 142.14 129.259C141 129.205 139.997 128.931 139.31 128.635C138.575 128.341 138.361 127.795 138.446 127.781C138.508 127.75 138.757 128.112 139.439 128.29C140.117 128.483 141.087 128.688 142.165 128.739C144.337 128.861 146.047 128.248 146.096 128.398Z" fill="#263238"/>
<path d="M148.126 120.986C148.122 121.13 145.974 121.179 143.329 121.096C140.684 121.013 138.544 120.829 138.548 120.685C138.552 120.541 140.7 120.492 143.345 120.576C145.99 120.659 148.13 120.843 148.126 120.986Z" fill="#263238"/>
<path d="M146.526 113.055C146.506 113.227 145.043 113.013 143.305 112.856C142.434 112.793 141.658 112.851 141.108 112.979C140.558 113.099 140.223 113.242 140.183 113.171C140.15 113.119 140.43 112.853 141.001 112.627C141.569 112.393 142.425 112.27 143.339 112.337C145.164 112.503 146.539 112.942 146.526 113.055Z" fill="#263238"/>
<path d="M156.689 92.9977C156.569 88.8087 160.444 85.5707 164.344 84.0357C168.244 82.5007 172.579 81.9227 176.056 79.5827C179.135 77.5107 181.204 74.2787 183.81 71.6367C190.203 65.1557 200.185 62.4687 208.967 64.8647C217.749 67.2607 224.984 74.6447 227.2 83.4737C228.698 89.4407 227.675 96.4947 222.972 100.46C217.513 105.062 209.421 104.04 202.426 102.608C195.431 101.177 187.515 99.7647 181.675 103.872C178.153 106.349 176.135 110.379 173.982 114.108C171.829 117.837 169.127 121.644 165.056 123.046C160.985 124.448 155.457 122.027 155.298 117.724" fill="#263238"/>
<path d="M156.971 95.2976C157.432 98.8096 154.891 101.954 152.361 104.433C149.831 106.912 146.973 109.542 146.527 113.055C146.005 117.159 149.002 121.201 148.132 125.246C147.58 127.814 145.583 129.791 144.372 132.122C142.672 135.394 142.584 139.352 143.626 142.888C144.669 146.425 146.33 154.323 148.789 157.071C155.587 164.671 166.412 171.23 176.35 173.513C186.288 175.796 196.61 175.81 206.788 175.183C215.12 174.671 224.701 175.054 231.645 163.591C235.241 157.655 237.022 149.761 238.934 143.088C240.58 137.343 242.003 131.19 240.292 125.464C239.295 122.127 237.288 119.161 236.305 115.821C235.077 111.648 235.525 107.185 235.031 102.863C233.961 93.5066 228.155 84.8156 219.921 80.2456C211.687 75.6756 201.24 75.3466 192.734 79.3886" fill="#263238"/>
<path d="M171.135 190.693C171.135 190.693 171.171 190.948 171.187 191.061C171.179 191.004 171.164 190.9 171.135 190.693Z" fill="#E7BAA9"/>
<path d="M231.045 109.696C230.265 97.7394 222.31 83.0854 210.397 84.3724L173.212 93.8584C169.593 94.2494 166.875 97.3444 166.955 100.983L171.043 188.709C171.113 190.204 171.459 191.666 172.077 193.028C174.839 199.118 184.014 214.587 203.942 208.322C208.818 206.789 211.044 201.456 212.01 195.97C212.019 195.318 212.279 194.744 212.288 194.122C213.099 187.791 212.435 181.803 212.435 181.803C212.504 174.56 212.496 171.59 212.501 171.657C212.501 171.657 227.773 169.087 230.894 149.147C232.445 139.232 231.912 122.98 231.045 109.696Z" fill="#E7BAA9"/>
<path d="M171.187 191.063C171.197 191.131 171.195 191.12 171.187 191.063Z" fill="#E7BAA9"/>
<path d="M225.055 122.652C225.106 124.002 224.004 125.158 222.596 125.237C221.19 125.316 220.007 124.288 219.956 122.938C219.905 121.588 221.007 120.431 222.412 120.352C223.821 120.273 225.004 121.302 225.055 122.652Z" fill="#263238"/>
<path d="M227.537 118.16C227.221 118.494 225.281 117.065 222.53 117.079C219.782 117.053 217.766 118.473 217.467 118.136C217.32 117.987 217.642 117.385 218.519 116.743C219.383 116.104 220.858 115.481 222.571 115.484C224.285 115.49 225.727 116.117 226.557 116.761C227.405 117.408 227.693 118.01 227.537 118.16Z" fill="#263238"/>
<path d="M197.792 122.653C197.843 124.003 196.741 125.159 195.333 125.237C193.927 125.315 192.744 124.288 192.693 122.938C192.642 121.588 193.744 120.431 195.15 120.352C196.558 120.274 197.741 121.303 197.792 122.653Z" fill="#263238"/>
<path d="M200.499 118.735C200.182 119.069 198.24 117.64 195.491 117.654C192.743 117.627 190.727 119.047 190.428 118.711C190.282 118.562 190.6 117.96 191.481 117.318C192.345 116.678 193.819 116.056 195.533 116.059C197.246 116.065 198.689 116.693 199.519 117.336C200.364 117.983 200.653 118.586 200.499 118.735Z" fill="#263238"/>
<path d="M210.528 139.113C210.515 138.957 212.223 138.658 214.993 138.297C215.695 138.223 216.36 138.082 216.477 137.602C216.641 137.094 216.346 136.338 216.004 135.521C215.34 133.823 214.646 132.042 213.916 130.177C211.015 122.568 208.911 116.31 209.219 116.197C209.526 116.083 212.128 122.158 215.03 129.767C215.728 131.643 216.397 133.432 217.032 135.143C217.3 135.94 217.759 136.845 217.403 137.899C217.215 138.424 216.7 138.806 216.25 138.929C215.8 139.067 215.406 139.076 215.058 139.097C212.268 139.253 210.538 139.269 210.528 139.113Z" fill="#263238"/>
<path d="M212.499 171.66C212.499 171.66 199.091 172.554 185.788 164.598C185.788 164.598 192.531 178.381 212.476 176.472L212.499 171.66Z" fill="#D99986"/>
<path d="M209.378 145.744C208.386 144.438 206.651 143.724 204.93 143.913C203.737 144.044 202.532 144.623 201.809 145.596C201.086 146.569 200.937 147.95 201.598 148.875C202.343 149.917 203.894 150.155 205.206 149.779C206.518 149.403 207.646 148.536 208.717 147.673C209.013 147.434 209.316 147.185 209.501 146.858C209.686 146.531 209.725 146.104 209.495 145.834" fill="#E8505B"/>
<path d="M202.436 141.032C202.883 141.005 202.896 143.991 205.456 146.105C208.012 148.226 211.194 147.883 211.218 148.301C211.26 148.488 210.511 148.883 209.167 148.922C207.849 148.97 205.924 148.551 204.357 147.258C202.795 145.962 202.12 144.229 202.016 143.004C201.9 141.756 202.231 141.015 202.436 141.032Z" fill="#263238"/>
<path d="M201.725 113.912C201.456 114.66 198.708 114.312 195.482 114.708C192.247 115.04 189.647 115.99 189.217 115.32C189.025 115 189.477 114.295 190.528 113.568C191.569 112.843 193.232 112.152 195.169 111.932C197.106 111.716 198.881 112.019 200.057 112.495C201.244 112.971 201.841 113.557 201.725 113.912Z" fill="#263238"/>
<path d="M226.508 110.2C226.025 110.825 224.129 110.182 221.85 110.156C219.572 110.051 217.643 110.585 217.197 109.933C217.002 109.616 217.304 108.99 218.146 108.396C218.976 107.805 220.364 107.32 221.931 107.364C223.496 107.41 224.855 107.974 225.648 108.612C226.455 109.252 226.721 109.894 226.508 110.2Z" fill="#263238"/>
<path d="M159.292 159.438C164.774 160.543 170.744 158.858 174.84 155.051C178.936 151.244 181.051 145.412 180.349 139.864C179.729 134.969 177.09 129.988 178.787 125.354C181.031 119.228 189.618 117.343 191.897 111.23C193.221 107.677 192.033 103.521 193.534 100.039C194.946 96.7652 198.39 94.8792 201.744 93.6672C205.097 92.4552 208.692 91.6182 211.507 89.4292C214.322 87.2412 216.078 83.1112 214.262 80.0432C199.392 81.8252 184.736 85.3862 170.705 90.6262C167.452 91.8412 164.035 93.3012 162.112 96.1932C160.077 99.2532 160.174 103.206 160.345 106.876C161.18 124.774 162.015 142.672 162.85 160.57" fill="#263238"/>
<path d="M160.544 166.291C160.535 166.303 160.426 166.232 160.223 166.085C159.981 165.901 159.69 165.679 159.336 165.41C158.565 164.806 157.432 163.908 156.034 162.675C154.645 161.436 152.97 159.862 151.347 157.743C149.741 155.642 148.163 152.903 147.62 149.538C147.026 146.265 147.462 142.143 150.191 139.049C151.535 137.533 153.26 136.398 154.835 135.089C156.437 133.808 157.767 132.179 158.457 130.148C159.931 126.084 159.274 121.379 159.844 116.571C160.475 111.786 162.184 106.846 165.495 102.836C167.148 100.852 169.132 99.1358 171.406 98.0048C173.668 96.8118 176.118 96.3198 178.381 95.6508C180.667 95.0198 182.762 94.0748 184.502 92.6348C186.254 91.2258 187.688 89.5058 188.945 87.7358C191.449 84.1798 193.3 80.3898 195.685 77.2308C196.873 75.6528 198.162 74.2158 199.613 73.0608C201.063 71.9048 202.655 71.0528 204.27 70.5248C207.487 69.4268 210.883 69.7908 213.123 71.4078C215.335 73.0898 216.144 75.5138 216.267 77.3748C216.36 79.2918 215.712 80.7288 215.068 81.4798C214.753 81.8688 214.471 82.1198 214.255 82.2578C214.052 82.4108 213.946 82.4808 213.937 82.4688C213.928 82.4568 214.017 82.3608 214.197 82.1888C214.391 82.0298 214.645 81.7648 214.927 81.3728C215.505 80.6128 216.065 79.2248 215.927 77.3978C215.763 75.6228 214.92 73.3257 212.838 71.8057C210.734 70.3427 207.527 70.0257 204.468 71.1117C202.932 71.6347 201.413 72.4688 200.038 73.5868C198.658 74.7068 197.416 76.1128 196.269 77.6628C193.958 80.7708 192.143 84.5508 189.605 88.2008C188.33 90.0138 186.861 91.7988 185.027 93.2858C183.216 94.8038 180.942 95.8328 178.623 96.4738C176.313 97.1598 173.932 97.6498 171.803 98.7798C169.645 99.8548 167.756 101.491 166.17 103.393C162.993 107.236 161.317 112.031 160.695 116.677C160.115 121.326 160.788 126.102 159.215 130.424C158.479 132.582 156.981 134.386 155.325 135.682C153.692 137.016 152 138.119 150.731 139.533C148.173 142.38 147.693 146.269 148.23 149.437C148.714 152.684 150.196 155.353 151.738 157.448C153.293 159.555 154.916 161.152 156.262 162.421C157.617 163.686 158.714 164.625 159.447 165.272C160.183 165.92 160.563 166.267 160.544 166.291Z" fill="#455A64"/>
<path d="M241.443 135.127C241.375 135.08 242.17 134.62 242.608 133.217C243.04 131.85 242.878 129.564 241.469 127.364C240.777 126.255 239.847 125.152 238.905 123.904C237.964 122.667 237.028 121.198 236.608 119.445C236.161 117.706 236.183 115.81 236.386 113.909C236.594 112.003 236.98 110.067 237.228 108.079C237.776 104.11 237.147 100.252 235.925 97.0207C234.701 93.7787 232.916 91.1487 231.161 89.2077C229.384 87.2767 227.677 85.9717 226.425 85.2027C225.184 84.4137 224.444 84.0577 224.469 84.0077C224.477 83.9917 224.665 84.0708 225.018 84.2378C225.363 84.4188 225.908 84.6248 226.531 85.0298C227.826 85.7528 229.592 87.0287 231.431 88.9577C233.248 90.8967 235.098 93.5518 236.372 96.8498C237.644 100.13 238.304 104.093 237.744 108.142C237.492 110.157 237.104 112.088 236.892 113.964C236.686 115.834 236.658 117.667 237.073 119.329C237.46 121.001 238.333 122.408 239.251 123.647C240.166 124.89 241.092 126.021 241.782 127.17C243.203 129.48 243.313 131.863 242.8 133.278C242.55 133.994 242.188 134.474 241.909 134.751C241.624 135.025 241.45 135.137 241.443 135.127Z" fill="#263238"/>
<path d="M271.094 67.25C270.594 67.125 270.125 66.7188 269.688 66.0312C269.25 65.2812 269.031 64.5312 269.031 63.7812C269.031 62.8438 269.344 61.9688 269.969 61.1562C270.656 60.3438 271.469 59.9375 272.406 59.9375C274.531 59.9375 276.219 60.25 277.469 60.875C278.719 61.4375 279.656 62.2188 280.281 63.2188C280.969 64.2188 281.406 65.375 281.594 66.6875C281.844 68 281.969 69.375 281.969 70.8125C281.969 74.4375 281.719 77.9688 281.219 81.4062C280.781 84.8438 280.469 88.0625 280.281 91.0625C280.156 91.1875 280.094 91.2812 280.094 91.3438C280.156 91.2812 280.219 91.25 280.281 91.25L285.156 88.8125C288.031 87.75 290.594 87.2188 292.844 87.2188C294.531 87.2188 296.156 87.5938 297.719 88.3438C299.281 89.0312 300.625 90.0625 301.75 91.4375C302.938 92.8125 303.875 94.5 304.562 96.5C305.25 98.5 305.594 100.812 305.594 103.438C305.594 105.938 305.062 108.156 304 110.094C302.938 112.031 301.562 113.688 299.875 115.062C298.188 116.375 296.312 117.375 294.25 118.062C292.25 118.75 290.281 119.094 288.344 119.094C286.156 119.094 284.094 118.75 282.156 118.062C280.219 117.438 278.562 116.5 277.188 115.25L276.625 115.906C275.75 116.344 274.875 116.562 274 116.562C272.938 116.562 272.062 116.219 271.375 115.531C270.75 114.844 270.375 113.875 270.25 112.625C270.25 111.812 270.25 110.875 270.25 109.812C270.312 108.75 270.406 107.688 270.531 106.625C270.719 105.562 270.906 104.5 271.094 103.438C271.344 102.375 271.656 101.438 272.031 100.625C272.031 100.438 272 100.25 271.938 100.062C271.938 99.8125 271.938 99.5938 271.938 99.4062C271.938 97.0312 272.094 94.3125 272.406 91.25C272.781 88.125 273.219 84.875 273.719 81.5C273.969 79.9375 274.188 78.4062 274.375 76.9062C274.562 75.4062 274.656 73.9375 274.656 72.5C274.656 70.875 274.469 69.3438 274.094 67.9062H273.25C273.062 67.9062 272.406 67.7188 271.281 67.3438L271.094 67.25ZM279.344 103.531L279.062 106.156C279.25 106.219 279.469 106.406 279.719 106.719C280.031 106.969 280.312 107.25 280.562 107.562C280.875 107.875 281.156 108.219 281.406 108.594C281.656 108.906 281.812 109.156 281.875 109.344C282.625 110.094 283.625 110.625 284.875 110.938C286.125 111.25 287.219 111.406 288.156 111.406C289.156 111.406 290.219 111.25 291.344 110.938C292.469 110.562 293.5 110 294.438 109.25C295.438 108.5 296.25 107.562 296.875 106.438C297.5 105.312 297.812 103.969 297.812 102.406C297.812 101.906 297.719 101.281 297.531 100.531C297.406 99.7188 297.219 98.9688 296.969 98.2812C296.781 97.5312 296.531 96.9062 296.219 96.4062C295.906 95.8438 295.594 95.5625 295.281 95.5625C294.844 95.4375 294.406 95.3438 293.969 95.2812C293.594 95.2188 293.156 95.1875 292.656 95.1875C291.469 95.1875 290.188 95.4062 288.812 95.8438C287.5 96.2188 286.219 96.75 284.969 97.4375C283.781 98.125 282.688 98.9375 281.688 99.875C280.688 100.812 279.969 101.812 279.531 102.875L279.344 103.531ZM312.719 82.9062C312.969 81.7812 313.406 80.9375 314.031 80.375C314.719 79.8125 315.531 79.4688 316.469 79.3438C317.719 79.3438 318.625 79.8125 319.188 80.75C319.75 81.625 320.125 82.7188 320.312 84.0312C320.562 85.3438 320.688 86.75 320.688 88.25C320.75 89.75 320.844 91.0938 320.969 92.2812C321.094 93.4062 321.25 94.5625 321.438 95.75C321.625 96.875 321.938 97.9375 322.375 98.9375C322.875 99.9375 323.531 100.75 324.344 101.375C325.219 102 326.406 102.312 327.906 102.312C328.281 102.312 328.625 102.281 328.938 102.219C329.25 102.094 329.562 101.969 329.875 101.844L332.219 100.719C332.594 100.469 333.062 100 333.625 99.3125C334.188 98.5625 334.719 97.625 335.219 96.5C335.781 95.375 336.25 94.0938 336.625 92.6562C337.062 91.1562 337.281 89.5 337.281 87.6875C337.281 87 337.25 86.375 337.188 85.8125C337.188 85.25 337.188 84.7188 337.188 84.2188L337.938 82.25L338.219 81.875C339.469 81 340.562 80.5625 341.5 80.5625C342.188 80.5625 342.781 80.75 343.281 81.125C343.781 81.4375 344.125 81.7812 344.312 82.1562L344.875 83.375L344.969 83.9375C344.969 85.5625 345 87.1875 345.062 88.8125C345.125 90.375 345.156 92.0938 345.156 93.9688C345.219 95.8438 345.281 97.9375 345.344 100.25C345.406 102.562 345.438 105.219 345.438 108.219C345.438 111.781 345.188 114.969 344.688 117.781C344.188 120.594 343.219 123.094 341.781 125.281C340.406 127.469 338.5 129.406 336.062 131.094C333.625 132.844 330.438 134.406 326.5 135.781C325.812 136.094 324.969 136.25 323.969 136.25C323.344 136.25 322.688 136.156 322 135.969C321.375 135.844 320.781 135.594 320.219 135.219C319.656 134.906 319.188 134.438 318.812 133.812C318.438 133.25 318.219 132.531 318.156 131.656C318.156 130.094 318.562 128.938 319.375 128.188C320.25 127.438 321.156 127.062 322.094 127.062H322.656H322.844C323.531 127.062 324.219 127.469 324.906 128.281L325.188 128.188C325.75 127.938 326.312 127.688 326.875 127.438C327.375 127.25 327.844 127.031 328.281 126.781C328.719 126.531 329.094 126.344 329.406 126.219C331.281 125.281 332.781 124.125 333.906 122.75C335.094 121.375 335.969 119.812 336.531 118.062C337.156 116.375 337.562 114.562 337.75 112.625C337.938 110.625 338.031 108.531 338.031 106.344V104.562C337.031 105.562 335.656 106.594 333.906 107.656C332.219 108.656 329.938 109.156 327.062 109.156C323.812 109.156 321.25 108.344 319.375 106.719C317.562 105.094 316.188 103 315.25 100.438C314.312 97.875 313.688 95.0625 313.375 92C313.125 88.875 312.906 85.8438 312.719 82.9062ZM359.594 91.25C359.469 91.3125 359.406 91.375 359.406 91.4375H359.594C360.031 91.4375 360.469 91.5625 360.906 91.8125C361.344 92 361.719 92.25 362.031 92.5625C362.344 92.8125 362.594 93.0625 362.781 93.3125C363.031 93.5 363.188 93.5938 363.25 93.5938C364.188 94.0312 365.219 94.25 366.344 94.25C368.156 94.25 369.688 94 370.938 93.5C372.188 92.9375 372.812 91.625 372.812 89.5625C372.438 88.3125 372 87.2812 371.5 86.4688C371.062 85.6562 370.312 84.875 369.25 84.125L367.281 83.2812H365.969C365.469 83.2812 364.812 83.4062 364 83.6562C363.188 83.9062 362.375 84.25 361.562 84.6875C361.312 85.0625 361.062 85.625 360.812 86.375C360.562 87.0625 360.344 87.75 360.156 88.4375C359.969 89.125 359.812 89.75 359.688 90.3125C359.625 90.875 359.594 91.1875 359.594 91.25ZM360.344 100.344L360.062 99.3125C360.812 102.625 362.625 105.344 365.5 107.469C366.125 107.969 366.906 108.406 367.844 108.781C368.844 109.156 369.812 109.5 370.75 109.812C371.75 110.125 372.625 110.375 373.375 110.562C374.125 110.688 374.594 110.75 374.781 110.75C375.406 110.188 376.188 109.906 377.125 109.906C378.25 110.031 379.125 110.5 379.75 111.312C380.375 112.062 380.688 112.875 380.688 113.75C380.688 115.125 380.031 116.219 378.719 117.031C377.469 117.906 376.125 118.344 374.688 118.344C371.625 118.344 368.719 117.719 365.969 116.469C363.219 115.281 360.812 113.656 358.75 111.594C356.688 109.531 355 107.156 353.688 104.469C352.438 101.781 351.75 98.9375 351.625 95.9375C351.625 93.875 351.781 91.6562 352.094 89.2812C352.406 86.9062 353.062 84.7188 354.062 82.7188C355.062 80.6562 356.5 78.9375 358.375 77.5625C360.312 76.1875 362.875 75.5 366.062 75.5C368.062 75.5 369.938 75.9375 371.688 76.8125C373.438 77.625 374.938 78.75 376.188 80.1875C377.5 81.625 378.531 83.2812 379.281 85.1562C380.031 86.9688 380.406 88.875 380.406 90.875C380.406 92.6875 380.062 94.2812 379.375 95.6562C378.75 97.0312 377.875 98.1875 376.75 99.125C375.625 100 374.281 100.688 372.719 101.188C371.219 101.625 369.625 101.844 367.938 101.844C367.25 101.844 366.469 101.781 365.594 101.656C364.781 101.531 364 101.406 363.25 101.281C362.5 101.094 361.844 100.938 361.281 100.812C360.781 100.625 360.469 100.469 360.344 100.344ZM404.781 105.031H405.25C406 105.031 406.656 105.219 407.219 105.594L407.594 105.969C408.656 106.594 409.531 107.594 410.219 108.969C410.969 110.344 411.344 111.75 411.344 113.188C411.344 114.875 410.781 116.406 409.656 117.781C408.531 119.219 406.625 119.938 403.938 119.938C401.75 119.938 400.125 119.344 399.062 118.156C398.062 117.031 397.562 115.5 397.562 113.562C397.562 112.625 397.719 111.688 398.031 110.75C398.344 109.812 398.781 108.969 399.344 108.219C399.969 107.406 400.719 106.719 401.594 106.156C402.531 105.594 403.594 105.219 404.781 105.031ZM401.406 61.0625C401.594 59.9375 402.062 59.0625 402.812 58.4375C403.625 57.75 404.469 57.4062 405.344 57.4062C406.219 57.4062 407.062 57.6875 407.875 58.25C408.688 58.75 409.312 59.5938 409.75 60.7812C409.75 66.6562 409.625 72.3438 409.375 77.8438C409.125 83.3438 409 89.0312 409 94.9062C408.812 96.4688 408.312 97.5938 407.5 98.2812C406.688 98.9688 405.781 99.3125 404.781 99.3125C403.844 99.3125 402.938 99 402.062 98.375C401.188 97.6875 400.75 96.625 400.75 95.1875C400.75 89.3125 400.844 83.625 401.031 78.125C401.281 72.625 401.406 66.9375 401.406 61.0625Z" fill="black"/>
</svg>
