<svg width="34" height="36" viewBox="0 0 34 36" fill="none" xmlns="http://www.w3.org/2000/svg">
<path d="M20.4087 25.7014V28.5586H23.3597C23.6206 28.5586 23.8708 28.6714 24.0552 28.8724C24.2397 29.0733 24.3433 29.3458 24.3433 29.63C24.3433 29.9141 24.2397 30.1867 24.0552 30.3876C23.8708 30.5885 23.6206 30.7014 23.3597 30.7014H20.4087V33.2014C20.4087 33.4855 20.3051 33.7581 20.1206 33.959C19.9361 34.1599 19.6859 34.2728 19.4251 34.2728C19.1642 34.2728 18.914 34.1599 18.7295 33.959C18.545 33.7581 18.4414 33.4855 18.4414 33.2014V24.63C18.4414 24.3459 18.545 24.0733 18.7295 23.8724C18.914 23.6715 19.1642 23.5586 19.4251 23.5586H24.0155C24.2763 23.5586 24.5265 23.6715 24.711 23.8724C24.8955 24.0733 24.9991 24.3459 24.9991 24.63C24.9991 24.9142 24.8955 25.1867 24.711 25.3876C24.5265 25.5886 24.2763 25.7014 24.0155 25.7014H20.4087Z" fill="white"/>
<path d="M12.9531 24.3821V33.4409" stroke="white" stroke-width="2" stroke-linecap="round"/>
<path d="M2.33624 28.8885C2.33624 30.6473 3.54346 32.0864 5.01894 32.0864C5.63906 32.0808 6.23568 31.8343 6.69563 31.3935C6.79236 31.2964 6.9066 31.221 7.03151 31.1718C7.15642 31.1227 7.28941 31.1008 7.42251 31.1074C7.55561 31.114 7.68607 31.1491 7.80607 31.2105C7.92607 31.2718 8.03312 31.3583 8.12082 31.4646C8.20932 31.5693 8.27739 31.6916 8.3211 31.8244C8.36482 31.9572 8.38331 32.0978 8.37552 32.2381C8.36772 32.3785 8.3338 32.5159 8.2757 32.6423C8.2176 32.7687 8.13647 32.8817 8.03698 32.9747C7.21094 33.7708 6.13556 34.214 5.01894 34.2184C2.43685 34.2184 0.324219 31.8199 0.324219 28.8885C0.324219 25.957 2.43685 23.5586 5.01894 23.5586C6.13556 23.563 7.21094 24.0061 8.03698 24.8022C8.13647 24.8953 8.2176 25.0083 8.2757 25.1347C8.3338 25.2611 8.36772 25.3984 8.37552 25.5388C8.38331 25.6792 8.36482 25.8198 8.3211 25.9526C8.27739 26.0853 8.20932 26.2076 8.12082 26.3124C8.03312 26.4187 7.92607 26.5051 7.80607 26.5665C7.68607 26.6279 7.55561 26.6629 7.42251 26.6696C7.28941 26.6762 7.15642 26.6543 7.03151 26.6051C6.9066 26.5559 6.79236 26.4805 6.69563 26.3834C6.23568 25.9427 5.63906 25.6961 5.01894 25.6905C3.54346 25.6905 2.33624 27.1296 2.33624 28.8885Z" fill="white"/>
<path d="M33.6777 11.1716V33.098C33.6777 33.7351 33.4246 34.346 32.9742 34.7965C32.5237 35.2469 31.9128 35.5 31.2757 35.5H28.5306C28.2576 35.5 27.9958 35.3915 27.8027 35.1985C27.6097 35.0054 27.5012 34.7436 27.5012 34.4706C27.5012 34.1976 27.6097 33.9357 27.8027 33.7427C27.9958 33.5496 28.2576 33.4412 28.5306 33.4412H31.2757C31.3667 33.4412 31.454 33.405 31.5184 33.3407C31.5827 33.2763 31.6189 33.1891 31.6189 33.098V12.1667H23.0405C22.7674 12.1667 22.5056 12.0583 22.3126 11.8652C22.1195 11.6722 22.011 11.4103 22.011 11.1373V2.55893H6.56992C6.47892 2.55893 6.39164 2.59508 6.32729 2.65943C6.26294 2.72378 6.22679 2.81106 6.22679 2.90207V18.0001C6.22679 18.2731 6.11833 18.5349 5.92528 18.728C5.73223 18.921 5.47039 19.0295 5.19738 19.0295C4.92436 19.0295 4.66253 18.921 4.46948 18.728C4.27642 18.5349 4.16797 18.2731 4.16797 18.0001V2.90207C4.16797 2.26503 4.42103 1.65408 4.87148 1.20363C5.32194 0.753176 5.93288 0.500113 6.56992 0.500113H23.0405C23.1755 0.498039 23.3095 0.524471 23.4337 0.577684C23.5578 0.630897 23.6694 0.709695 23.761 0.808936L33.3689 10.3996C33.4669 10.4957 33.5448 10.6105 33.5978 10.7372C33.6509 10.8639 33.678 11 33.6777 11.1373V11.1716ZM24.0699 10.1079H30.1605L24.0699 4.01726V10.1079Z" fill="white"/>
</svg>
