<svg width="36" height="36" viewBox="0 0 36 36" fill="none" xmlns="http://www.w3.org/2000/svg">
<g clip-path="url(#clip0_2398_117020)">
<path d="M33.3139 18.1879C33.6443 18.3019 33.9406 18.4614 34.2026 18.6665C34.4646 18.8715 34.6982 19.1108 34.9033 19.3842C35.1084 19.6577 35.2565 19.9539 35.3476 20.2729C35.4388 20.5919 35.49 20.928 35.5014 21.2812V25.6562C35.5014 27.012 35.2451 28.288 34.7324 29.4843C34.2197 30.6806 33.5133 31.7231 32.6132 32.6118C31.7132 33.5005 30.6707 34.2011 29.4858 34.7138C28.3009 35.2265 27.0249 35.4886 25.6577 35.5C24.4044 35.5 23.2195 35.2778 22.103 34.8335C20.9865 34.3891 19.9838 33.7739 19.0952 32.9878C18.2065 32.2016 17.483 31.2788 16.9248 30.2192C16.3665 29.1596 16.0133 28.0032 15.8652 26.75H2.68892C2.38131 26.75 2.09648 26.693 1.83443 26.5791C1.57239 26.4651 1.34452 26.3113 1.15084 26.1176C0.957153 25.924 0.797648 25.6904 0.672323 25.417C0.546997 25.1435 0.490031 24.8587 0.501424 24.5625V4.87496C0.501424 4.56734 0.55839 4.28251 0.672323 4.02047C0.786255 3.75842 0.940063 3.53056 1.13375 3.33687C1.32743 3.14319 1.56099 2.98368 1.83443 2.85836C2.10787 2.73303 2.3927 2.67607 2.68892 2.68746H31.1264C31.434 2.68746 31.7189 2.74443 31.9809 2.85836C32.243 2.97229 32.4708 3.1261 32.6645 3.31978C32.8582 3.51347 33.0177 3.74703 33.143 4.02047C33.2684 4.2939 33.3253 4.57874 33.3139 4.87496V18.1879ZM15.8139 22.375C15.8139 21.7711 15.9279 21.2072 16.1557 20.6831C16.3836 20.159 16.6969 19.6919 17.0957 19.2817C17.4944 18.8715 17.9559 18.5582 18.4799 18.3418C19.004 18.1253 19.5737 18.0114 20.1889 18V12.5312C20.1889 12.0755 20.2744 11.6482 20.4453 11.2495C20.6162 10.8507 20.8497 10.5032 21.146 10.207C21.4422 9.91077 21.7897 9.67721 22.1884 9.50631C22.5872 9.33541 23.0144 9.24996 23.4702 9.24996C23.9259 9.24996 24.3475 9.33541 24.7348 9.50631C25.1222 9.67721 25.4697 9.91077 25.7773 10.207C26.0849 10.5032 26.3185 10.8507 26.478 11.2495C26.6375 11.6482 26.7229 12.0755 26.7343 12.5312V15.2656C26.7343 16.1657 26.74 17.0771 26.7514 18H31.5026V4.5H2.25146V24.5625H15.8139V22.375ZM33.3139 21.2812C33.3139 20.985 33.2057 20.7286 32.9892 20.5122C32.7727 20.2957 32.5164 20.1875 32.2202 20.1875H24.5639V12.5312C24.5639 12.235 24.4557 11.9786 24.2392 11.7622C24.0227 11.5457 23.7664 11.4375 23.4702 11.4375C23.174 11.4375 22.9176 11.5457 22.7011 11.7622C22.4847 11.9786 22.3764 12.235 22.3764 12.5312V25.6562C22.3764 25.9524 22.2682 26.2088 22.0517 26.4253C21.8352 26.6417 21.5789 26.75 21.2827 26.75C20.9865 26.75 20.7301 26.6417 20.5136 26.4253C20.2972 26.2088 20.1889 25.9524 20.1889 25.6562V20.1875C19.8813 20.1875 19.5965 20.2444 19.3344 20.3584C19.0724 20.4723 18.8445 20.6261 18.6508 20.8198C18.4572 21.0135 18.2976 21.247 18.1723 21.5205C18.047 21.7939 17.99 22.0787 18.0014 22.375V25.6562C18.0014 26.7158 18.2008 27.707 18.5996 28.6298C18.9983 29.5527 19.5452 30.3616 20.2402 31.0566C20.9352 31.7516 21.7441 32.2985 22.667 32.6972C23.5898 33.096 24.5867 33.3011 25.6577 33.3125C26.7172 33.3125 27.7085 33.1131 28.6313 32.7143C29.5542 32.3156 30.3631 31.7687 31.0581 31.0737C31.7531 30.3787 32.2999 29.5698 32.6987 28.6469C33.0975 27.7241 33.3025 26.7272 33.3139 25.6562V21.2812Z" fill="white"/>
<path fill-rule="evenodd" clip-rule="evenodd" d="M17.0798 22.6053H10.9304C10.5117 22.6053 10.1719 22.1927 10.1719 21.6842C10.1719 21.1758 10.5117 20.7632 10.9304 20.7632H17.0798C17.4985 20.7632 17.31 21.1758 17.31 21.6842C17.31 22.1927 17.4985 22.6053 17.0798 22.6053Z" fill="white"/>
<path fill-rule="evenodd" clip-rule="evenodd" d="M19.5425 9.24999H8.16476C7.74606 9.24999 7.40625 8.94051 7.40625 8.5592C7.40625 8.17788 7.74606 7.86841 8.16476 7.86841H19.5425C19.9612 7.86841 20.301 8.17788 20.301 8.5592C20.301 8.94051 19.9612 9.24999 19.5425 9.24999" fill="white"/>
<path fill-rule="evenodd" clip-rule="evenodd" d="M15.8492 12.9343H8.17379C7.75011 12.9343 7.40625 12.6248 7.40625 12.2435C7.40625 11.8622 7.75011 11.5527 8.17379 11.5527H15.8492C16.2729 11.5527 16.6168 11.8622 16.6168 12.2435C16.6168 12.6248 16.2729 12.9343 15.8492 12.9343" fill="white"/>
<path fill-rule="evenodd" clip-rule="evenodd" d="M12.1431 16.6184H8.19572C7.75993 16.6184 7.40625 16.3089 7.40625 15.9276C7.40625 15.5463 7.75993 15.2368 8.19572 15.2368H12.1431C12.5789 15.2368 12.9326 15.5463 12.9326 15.9276C12.9326 16.3089 12.5789 16.6184 12.1431 16.6184" fill="white"/>
</g>
<defs>
<clipPath id="clip0_2398_117020">
<rect width="35" height="35" fill="white" transform="translate(0.5 0.5)"/>
</clipPath>
</defs>
</svg>
