<svg width="27" height="40" viewBox="0 0 27 40" fill="none" xmlns="http://www.w3.org/2000/svg">
<path d="M10.7141 1.87308C10.8044 2.21595 10.6071 2.58517 10.2623 2.70861C10.1985 2.74687 9.81122 2.76346 9.42781 2.7986C7.85979 2.91801 6.34377 3.47293 5.06056 4.40357C4.13196 5.05862 3.3498 5.89741 2.76243 6.85612C2.28711 7.58036 2.19321 7.6646 1.79275 7.64728C1.39732 7.57818 1.13574 7.2267 1.19273 6.81631C1.53419 6.10974 1.97486 5.4481 2.49351 4.84414C4.11231 2.98057 6.36662 1.76644 8.80345 1.44586C10.0652 1.27349 10.5704 1.38114 10.6875 1.88902L10.7141 1.87308Z" fill="white"/>
<path d="M10.435 5.99546C10.4515 6.21544 10.3881 6.43464 10.2422 6.61277C10.0872 6.77555 9.89713 6.81998 9.43435 6.81917C8.91959 6.77992 8.39981 6.9248 7.96919 7.21817C7.49636 7.45329 7.12107 7.83883 6.90004 8.31287C6.81721 8.47822 6.72222 8.6377 6.61585 8.79C6.31517 9.04715 5.86748 9.02336 5.59165 8.7083C5.37255 8.46368 5.37784 8.19578 5.62766 7.69749C5.98276 6.99009 6.53746 6.39372 7.22335 5.98192C7.90924 5.57012 8.69636 5.36089 9.48766 5.38001C10.0533 5.39569 10.3537 5.61936 10.432 5.99034L10.435 5.99546Z" fill="white"/>
<path fill-rule="evenodd" clip-rule="evenodd" d="M9.57751 10.2158C10.2992 9.4963 11.2769 9.09302 12.2953 9.09302H22.8861C23.9045 9.09302 24.8822 9.4963 25.6039 10.2158C26.3257 10.9354 26.7322 11.9125 26.7322 12.9324V36.1605C26.7322 37.1804 26.3257 38.1575 25.6039 38.8772C24.8822 39.5966 23.9045 39.9999 22.8861 39.9999H12.2953C11.2769 39.9999 10.2992 39.5966 9.57751 38.8772C8.85567 38.1575 8.44922 37.1804 8.44922 36.1605V12.9324C8.44922 11.9125 8.85567 10.9354 9.57751 10.2158ZM12.2953 10.4368C11.6285 10.4368 10.9899 10.7009 10.5199 11.1695C10.05 11.6379 9.78699 12.2722 9.78699 12.9324V36.1605C9.78699 36.8208 10.05 37.455 10.5199 37.9234C10.9899 38.392 11.6285 38.6561 12.2953 38.6561H22.8861C23.5529 38.6561 24.1915 38.392 24.6615 37.9234C25.1313 37.455 25.3944 36.8208 25.3944 36.1605V12.9324C25.3944 12.2722 25.1313 11.6379 24.6615 11.1695C24.1915 10.7009 23.5529 10.4368 22.8861 10.4368H20.3777V11.8766C20.3777 12.2476 20.0783 12.5484 19.7088 12.5484H15.4725C15.1031 12.5484 14.8037 12.2476 14.8037 11.8766V10.4368H12.2953ZM16.1414 10.4368V11.2047H19.0399V10.4368H16.1414ZM14.8037 36.1605C14.8037 35.7895 15.1031 35.4886 15.4725 35.4886H19.7088C20.0783 35.4886 20.3777 35.7895 20.3777 36.1605C20.3777 36.5316 20.0783 36.8324 19.7088 36.8324H15.4725C15.1031 36.8324 14.8037 36.5316 14.8037 36.1605Z" fill="white"/>
<path fill-rule="evenodd" clip-rule="evenodd" d="M18.3744 24.8033C18.6252 24.8033 18.8776 24.9121 19.0687 25.1031C19.2493 25.288 19.3568 25.5567 19.3568 25.8285C19.3568 26.1019 19.2523 26.366 19.0702 26.5509C18.8776 26.7435 18.6252 26.8522 18.3744 26.8522H18.2251V24.8033H18.3744ZM16.8574 23.3898H16.7081C16.4587 23.3898 16.2064 23.2795 16.0152 23.0884C15.8271 22.8818 15.7271 22.6255 15.7271 22.3646C15.7271 22.0927 15.8346 21.8224 16.0138 21.6407C16.1914 21.4465 16.4378 21.3393 16.7081 21.3393H16.8574V23.3898ZM18.3938 19.9103H18.2251V18.9006C18.2251 18.7049 18.1534 18.5216 18.028 18.3973C17.9011 18.2606 17.7293 18.186 17.5412 18.186C17.3531 18.186 17.1829 18.2606 17.0589 18.3942C16.9275 18.5231 16.8574 18.7002 16.8574 18.9006V19.9103H16.7081C16.1004 19.9103 15.4927 20.1743 15.0462 20.6326C14.6102 21.0815 14.3594 21.7122 14.3594 22.3646C14.3594 23.0108 14.6042 23.6259 15.0477 24.095C15.4837 24.5439 16.0899 24.8033 16.7081 24.8033H16.8574V26.8522H16.6648C16.4124 26.8522 16.175 26.7512 16.0003 26.5664C15.8271 26.3831 15.7271 26.1314 15.7271 25.8751C15.7271 25.6856 15.6584 25.5148 15.524 25.3687C15.4016 25.2336 15.2314 25.159 15.0432 25.159C14.8551 25.159 14.6819 25.2336 14.5595 25.3687C14.4266 25.5148 14.3594 25.6841 14.3594 25.8751C14.3594 26.5074 14.6057 27.1271 15.0343 27.5761C15.4613 28.0219 16.0421 28.2673 16.6648 28.2673H16.8574V29.2925C16.8574 29.4914 16.9275 29.67 17.0559 29.7958C17.1829 29.9325 17.3546 30.0071 17.5412 30.0071C17.7279 30.0071 17.9011 29.9325 18.025 29.7974C18.1534 29.67 18.2251 29.4867 18.2251 29.2925V28.2673H18.3744C18.994 28.2673 19.5987 28.0079 20.0362 27.559C20.4797 27.0899 20.7245 26.4747 20.7245 25.8285C20.7245 25.1823 20.4797 24.5672 20.0347 24.0966C19.5987 23.6476 18.9925 23.3898 18.3744 23.3898H18.2251V21.3393H18.3938C18.6581 21.3393 18.9014 21.4465 19.0776 21.6438C19.2568 21.8287 19.3568 22.0803 19.3568 22.349C19.3568 22.5308 19.43 22.7156 19.5584 22.8539C19.8122 23.1024 20.2677 23.1055 20.526 22.8508C20.6514 22.7141 20.7245 22.5292 20.7245 22.349C20.7245 21.7059 20.4752 21.0815 20.0422 20.6326C19.6047 20.1666 19.0194 19.9103 18.3938 19.9103V19.9103Z" fill="white"/>
</svg>
