<svg width="41" height="36" viewBox="0 0 41 36" fill="none" xmlns="http://www.w3.org/2000/svg">
<path fill-rule="evenodd" clip-rule="evenodd" d="M4.58984 4.14583C4.58984 2.13229 6.22214 0.5 8.23568 0.5H25.7357C27.7493 0.5 29.3815 2.1323 29.3815 4.14583V10.7083C29.3815 11.111 29.055 11.4375 28.6523 11.4375C28.2496 11.4375 27.9232 11.111 27.9232 10.7083V4.14583C27.9232 2.9377 26.9438 1.95833 25.7357 1.95833H8.23568C7.02755 1.95833 6.04818 2.93771 6.04818 4.14583V27.4792C6.04818 28.6873 7.02755 29.6667 8.23568 29.6667H25.7357C26.9438 29.6667 27.9232 28.6873 27.9232 27.4792V21.6458C27.9232 21.2431 28.2496 20.9167 28.6523 20.9167C29.055 20.9167 29.3815 21.2431 29.3815 21.6458V27.4792C29.3815 29.4928 27.7493 31.125 25.7357 31.125H8.23568C6.22215 31.125 4.58984 29.4928 4.58984 27.4792V4.14583ZM10.4232 7.0625C10.4232 6.65979 10.7496 6.33333 11.1523 6.33333H22.819C23.2217 6.33333 23.5482 6.65979 23.5482 7.0625C23.5482 7.46521 23.2217 7.79167 22.819 7.79167H11.1523C10.7496 7.79167 10.4232 7.46521 10.4232 7.0625ZM10.4232 12.8958C10.4232 12.4931 10.7496 12.1667 11.1523 12.1667H22.819C23.2217 12.1667 23.5482 12.4931 23.5482 12.8958C23.5482 13.2985 23.2217 13.625 22.819 13.625H11.1523C10.7496 13.625 10.4232 13.2985 10.4232 12.8958ZM10.4232 18.7292C10.4232 18.3265 10.7496 18 11.1523 18H15.5273C15.9301 18 16.2565 18.3265 16.2565 18.7292C16.2565 19.1319 15.9301 19.4583 15.5273 19.4583H11.1523C10.7496 19.4583 10.4232 19.1319 10.4232 18.7292Z" fill="white"/>
<path fill-rule="evenodd" clip-rule="evenodd" d="M0.214844 8.52083C0.214844 6.50729 1.84714 4.875 3.86068 4.875H5.31901C5.72172 4.875 6.04818 5.20146 6.04818 5.60417C6.04818 6.00687 5.72172 6.33333 5.31901 6.33333H3.86068C2.65255 6.33333 1.67318 7.31271 1.67318 8.52083V31.8542C1.67318 33.0623 2.65255 34.0417 3.86068 34.0417H21.3607C22.5688 34.0417 23.5482 33.0623 23.5482 31.8542V30.3958C23.5482 29.9931 23.8746 29.6667 24.2773 29.6667C24.68 29.6667 25.0065 29.9931 25.0065 30.3958V31.8542C25.0065 33.8678 23.3743 35.5 21.3607 35.5H3.86068C1.84715 35.5 0.214844 33.8678 0.214844 31.8542V8.52083Z" fill="white"/>
<mask id="mask0_2398_117037" style="mask-type:luminance" maskUnits="userSpaceOnUse" x="16" y="4" width="25" height="24">
<path fill-rule="evenodd" clip-rule="evenodd" d="M16.9844 4.14575H40.7869V27.9383H16.9844V4.14575Z" fill="white"/>
</mask>
<g mask="url(#mask0_2398_117037)">
<path fill-rule="evenodd" clip-rule="evenodd" d="M25.5881 23.0115L21.9175 19.3393L34.7233 6.53278L38.3931 10.2049L25.5881 23.0115ZM20.9452 21.1754L23.7528 23.9831L19.5467 25.3831L20.9452 21.1754ZM35.4279 4.42895C35.2412 4.24535 34.9872 4.13824 34.7233 4.14589C34.4601 4.14589 34.2084 4.24535 34.0195 4.42895L19.8145 18.6355L19.7747 18.6738L19.7548 18.6967C19.7357 18.7273 19.7058 18.7579 19.6859 18.7885C19.6859 18.7962 19.676 18.7962 19.676 18.8038C19.6561 18.8344 19.6454 18.8574 19.6263 18.888C19.6163 18.8956 19.6163 18.9033 19.6064 18.9109C19.5964 18.9415 19.5865 18.9645 19.5765 18.9951C19.5765 19.0027 19.5666 19.0027 19.5666 19.0104L17.0366 26.6453C16.9158 26.9973 17.0083 27.3874 17.2753 27.6552C17.4628 27.8388 17.716 27.9382 17.9791 27.9382C18.087 27.9382 18.1941 27.9229 18.2966 27.8923L25.9056 25.3524C25.9148 25.3524 25.9148 25.3525 25.9247 25.3448C25.9561 25.3295 25.9867 25.3218 26.0142 25.3065C26.0219 25.2989 26.0288 25.2989 26.0341 25.2912C26.064 25.2759 26.1037 25.253 26.1336 25.23C26.1626 25.2147 26.1925 25.1841 26.2223 25.1612C26.233 25.1535 26.2422 25.1535 26.2422 25.1459C26.2522 25.1306 26.272 25.1229 26.282 25.1076L40.4962 10.8934C40.6821 10.7022 40.7869 10.4497 40.7869 10.1896C40.7869 9.9295 40.6821 9.67704 40.4962 9.49343L35.4279 4.42895Z" fill="white"/>
</g>
</svg>
