<svg width="40" height="36" viewBox="0 0 40 36" fill="none" xmlns="http://www.w3.org/2000/svg">
<path fill-rule="evenodd" clip-rule="evenodd" d="M1.4566 8.25024C1.99354 8.25024 2.42882 8.68552 2.42882 9.22247V31.4912C2.42882 32.0387 2.64632 32.5638 3.03348 32.951C3.42063 33.3381 3.94573 33.5556 4.49324 33.5556H28.7864C29.3234 33.5556 29.7586 33.9909 29.7586 34.5279C29.7586 35.0648 29.3234 35.5001 28.7864 35.5001H4.49324C3.43003 35.5001 2.41035 35.0777 1.65855 34.3259C0.906737 33.5741 0.484375 32.5544 0.484375 31.4912V9.22247C0.484375 8.68552 0.919654 8.25024 1.4566 8.25024Z" fill="white"/>
<path fill-rule="evenodd" clip-rule="evenodd" d="M28.6662 16.5313C29.0459 16.911 29.0459 17.5266 28.6662 17.9063L19.5563 27.0162C19.3739 27.1985 19.1267 27.301 18.8688 27.301C18.611 27.301 18.3637 27.1985 18.1813 27.0162L12.7955 21.6304L7.40969 27.0162C7.03001 27.3959 6.41443 27.3959 6.03476 27.0162C5.65508 26.6365 5.65508 26.021 6.03476 25.6413L12.1081 19.568C12.2904 19.3857 12.5377 19.2832 12.7955 19.2832C13.0534 19.2832 13.3007 19.3857 13.483 19.568L18.8688 24.9538L27.2913 16.5313C27.671 16.1517 28.2865 16.1517 28.6662 16.5313Z" fill="white"/>
<path fill-rule="evenodd" clip-rule="evenodd" d="M22.4531 17.2188C22.4531 16.6819 22.8884 16.2466 23.4253 16.2466H27.9803C28.5173 16.2466 28.9525 16.6819 28.9525 17.2188V21.7738C28.9525 22.3107 28.5173 22.746 27.9803 22.746C27.4434 22.746 27.0081 22.3107 27.0081 21.7738V18.191H23.4253C22.8884 18.191 22.4531 17.7557 22.4531 17.2188Z" fill="white"/>
<path fill-rule="evenodd" clip-rule="evenodd" d="M33.6702 7.91577C33.8617 7.91577 34.0543 7.9977 34.2002 8.14168C34.3381 8.28096 34.4201 8.48346 34.4201 8.6883C34.4201 8.89431 34.3403 9.09329 34.2013 9.23258C34.0543 9.37772 33.8617 9.45966 33.6702 9.45966H33.5562V7.91577H33.6702ZM32.5122 6.85061H32.3983C32.2079 6.85061 32.0153 6.76751 31.8694 6.62354C31.7258 6.46786 31.6495 6.27473 31.6495 6.07809C31.6495 5.87325 31.7315 5.66958 31.8683 5.53263C32.0039 5.38632 32.192 5.30556 32.3983 5.30556H32.5122V6.85061ZM33.685 4.2287H33.5562V3.46787C33.5562 3.32039 33.5015 3.18227 33.4058 3.08863C33.3089 2.98563 33.1778 2.92944 33.0342 2.92944C32.8906 2.92944 32.7607 2.98563 32.6661 3.08629C32.5658 3.18344 32.5122 3.31688 32.5122 3.46787V4.2287H32.3983C31.9344 4.2287 31.4705 4.42768 31.1297 4.77298C30.7969 5.11125 30.6055 5.58648 30.6055 6.07809C30.6055 6.56501 30.7924 7.02853 31.1309 7.38202C31.4637 7.7203 31.9264 7.91577 32.3983 7.91577H32.5122V9.45966H32.3652C32.1726 9.45966 31.9914 9.38357 31.858 9.24429C31.7258 9.10617 31.6495 8.91655 31.6495 8.72341C31.6495 8.58061 31.597 8.45186 31.4945 8.34183C31.401 8.24 31.2711 8.18381 31.1275 8.18381C30.9839 8.18381 30.8516 8.24 30.7582 8.34183C30.6568 8.45186 30.6055 8.57944 30.6055 8.72341C30.6055 9.19981 30.7935 9.66684 31.1206 10.0051C31.4466 10.341 31.8899 10.526 32.3652 10.526H32.5122V11.2985C32.5122 11.4483 32.5658 11.5829 32.6638 11.6778C32.7607 11.7808 32.8918 11.8369 33.0342 11.8369C33.1767 11.8369 33.3089 11.7808 33.4035 11.6789C33.5015 11.5829 33.5562 11.4448 33.5562 11.2985V10.526H33.6702C34.1432 10.526 34.6048 10.3305 34.9387 9.99223C35.2772 9.63874 35.4641 9.17523 35.4641 8.6883C35.4641 8.20137 35.2772 7.73785 34.9376 7.38319C34.6048 7.04492 34.142 6.85061 33.6702 6.85061H33.5562V5.30556H33.685C33.8867 5.30556 34.0725 5.38632 34.207 5.53497C34.3438 5.67426 34.4201 5.86388 34.4201 6.06638C34.4201 6.20333 34.476 6.34262 34.574 6.44679C34.7677 6.63407 35.1153 6.63641 35.3125 6.44445C35.4083 6.34145 35.4641 6.20216 35.4641 6.06638C35.4641 5.58179 35.2738 5.11125 34.9433 4.77298C34.6093 4.42183 34.1625 4.2287 33.685 4.2287Z" fill="white"/>
<path fill-rule="evenodd" clip-rule="evenodd" d="M36.8506 10.8024C35.8412 11.8049 34.4499 12.3794 33.0362 12.3794C31.6236 12.3794 30.2324 11.8049 29.2217 10.8024C28.204 9.77869 27.6425 8.4204 27.6425 6.97818C27.6425 5.56315 28.217 4.17412 29.2217 3.16575C30.2324 2.1621 31.6236 1.58758 33.0362 1.58758C34.4499 1.58758 35.8412 2.1621 36.8506 3.16456C37.8554 4.17412 38.431 5.56315 38.431 6.97818C38.431 8.42158 37.8696 9.77987 36.8506 10.8024ZM33.0362 0.5C29.4652 0.5 26.5586 3.40572 26.5586 6.97818C26.5586 10.5506 29.4652 13.4564 33.0362 13.4564C36.6083 13.4564 39.515 10.5506 39.515 6.97818C39.515 3.40572 36.6083 0.5 33.0362 0.5Z" fill="white"/>
<path fill-rule="evenodd" clip-rule="evenodd" d="M37.0893 5.70018C37.0779 5.39575 37.0357 5.11473 36.9672 4.86885C36.561 3.40524 35.2934 2.97201 35.2306 2.94859C35.0013 2.87834 34.7537 3.00713 34.6818 3.24131C34.6065 3.47549 34.7343 3.72138 34.9636 3.80334C34.9739 3.80334 36.1685 4.21315 36.2153 5.7353C36.2233 5.98119 36.4252 6.16853 36.6671 6.16853C36.9079 6.15682 37.0961 5.94606 37.0893 5.70018Z" fill="white"/>
</svg>
