<svg width="42" height="36" viewBox="0 0 42 36" fill="none" xmlns="http://www.w3.org/2000/svg">
<path d="M23.3959 19.5183C23.3932 19.5259 23.3917 19.534 23.3915 19.5421C23.327 20.3103 23.4489 21.0821 23.7468 21.792C24.0446 22.5019 24.5097 23.1289 25.1023 23.6196C25.7516 24.1584 26.5322 24.5155 27.365 24.6545C28.1978 24.7935 29.0531 24.7095 29.8441 24.4111C30.251 24.2585 30.744 24.3132 31.0959 24.6404L31.097 24.6412L34.0402 27.3545C34.1367 27.4434 36.3255 29.6989 36.3308 29.8302C36.336 29.9616 36.6379 30.2529 36.5487 30.3497C36.4596 30.4465 35.8888 30.2431 35.7575 30.2487C35.6262 30.2542 33.4644 28.1735 33.3678 28.0846L30.4226 25.3696L30.4206 25.3679C30.3774 25.3269 30.2915 25.3013 30.1908 25.339C29.2362 25.6989 28.2041 25.8001 27.1992 25.6323C26.1943 25.4645 25.2523 25.0336 24.4688 24.3835C23.7535 23.7913 23.1923 23.0348 22.8327 22.1781C22.4732 21.3214 22.326 20.3899 22.4036 19.463C22.4178 19.2624 22.4907 19.0703 22.6133 18.9107C22.7359 18.7511 22.9028 18.631 23.0929 18.5656C23.4457 18.4421 23.8588 18.5053 24.1762 18.7686L26.5706 20.7543C26.5923 20.7723 26.6183 20.7844 26.646 20.7895C26.6738 20.7946 26.7024 20.7925 26.7291 20.7834L28.3829 20.2209C28.4421 20.2012 28.4852 20.1493 28.4936 20.0874L28.7404 18.3581C28.7444 18.3302 28.7412 18.3017 28.731 18.2753C28.7209 18.249 28.7042 18.2258 28.6825 18.2078L26.2886 16.2225C25.9706 15.9588 25.832 15.5645 25.8886 15.1945C25.9178 14.9957 26.0048 14.8097 26.1389 14.6598C26.273 14.5099 26.4481 14.4027 26.6425 14.3516C27.5392 14.1039 28.4819 14.0764 29.3904 14.2713C30.2989 14.4662 31.1463 14.8778 31.8607 15.4712C32.6445 16.1209 33.2421 16.967 33.5927 17.9235C33.9434 18.8801 34.0347 19.9131 33.8574 20.9177C33.8394 21.0231 33.8805 21.1028 33.9283 21.1382L33.9303 21.1398L37.1438 23.5314C37.1959 23.5702 37.2399 23.619 37.2731 23.6748C37.3064 23.7307 37.3283 23.7926 37.3376 23.857C37.3469 23.9214 37.3435 23.9871 37.3274 24.0502C37.3114 24.1133 37.2831 24.1727 37.2442 24.225C37.2052 24.2772 37.1564 24.3213 37.1005 24.3547C37.0445 24.3881 36.9826 24.4102 36.9182 24.4197C36.8538 24.4292 36.7882 24.4259 36.7252 24.4101C36.6621 24.3942 36.6028 24.366 36.5507 24.3272L33.3397 21.9368L33.3387 21.936C32.9521 21.6506 32.8067 21.1768 32.8814 20.7487C33.0285 19.9161 32.9529 19.0599 32.6623 18.2671C32.3717 17.4743 31.8764 16.7731 31.2266 16.2347C30.6348 15.743 29.9326 15.402 29.1798 15.2406C28.4271 15.0793 27.646 15.1023 26.9031 15.3078C26.8951 15.3095 26.8875 15.3124 26.8804 15.3165L26.8757 15.3212C26.8744 15.3227 26.8698 15.3283 26.8677 15.3412C26.8636 15.3688 26.8723 15.4173 26.9221 15.4585L29.3155 17.4434C29.6243 17.6995 29.7778 18.0975 29.7205 18.4953L29.4737 20.2246C29.4434 20.4366 29.3549 20.6361 29.2182 20.801C29.0814 20.9659 28.9017 21.0897 28.6991 21.1587L27.0458 21.7216C26.8588 21.7851 26.6589 21.7998 26.4649 21.7643C26.271 21.7288 26.0895 21.6442 25.9376 21.5187L23.5427 19.5325C23.4929 19.4913 23.4437 19.4917 23.4178 19.5012C23.4108 19.5033 23.4043 19.5071 23.3991 19.5123L23.3954 19.5178L23.3959 19.5183Z" fill="white"/>
<path d="M22.9833 0.5C23.0738 0.500003 23.162 0.52864 23.2352 0.581786C23.3083 0.634932 23.3626 0.709846 23.3903 0.795738L23.8606 2.25227C24.0582 2.34857 24.2471 2.45681 24.4275 2.57869L25.9291 2.25653C26.0176 2.23769 26.1099 2.24734 26.1925 2.2841C26.2752 2.32086 26.344 2.38283 26.3891 2.46107L27.5743 4.50567C27.6195 4.58387 27.6387 4.67437 27.629 4.76413C27.6193 4.85389 27.5813 4.93827 27.5204 5.0051L26.49 6.13861C26.505 6.35597 26.505 6.5741 26.49 6.79145L27.5204 7.92668C27.5813 7.9935 27.6193 8.07788 27.629 8.16764C27.6387 8.2574 27.6195 8.3479 27.5743 8.42611L26.3891 10.4716C26.3439 10.5496 26.275 10.6114 26.1924 10.648C26.1097 10.6846 26.0175 10.6942 25.9291 10.6752L24.4275 10.3531C24.248 10.4741 24.0582 10.5832 23.8615 10.6795L23.3903 12.136C23.3626 12.2219 23.3083 12.2968 23.2352 12.35C23.162 12.4031 23.0738 12.4318 22.9833 12.4318H20.613C20.5225 12.4318 20.4343 12.4031 20.3612 12.35C20.288 12.2968 20.2337 12.2219 20.206 12.136L19.7365 10.6804C19.5395 10.5843 19.3495 10.4747 19.1679 10.3522L17.6672 10.6752C17.5787 10.6941 17.4864 10.6844 17.4038 10.6477C17.3211 10.6109 17.2523 10.5489 17.2072 10.4707L16.022 8.42611C15.9768 8.3479 15.9576 8.2574 15.9673 8.16764C15.977 8.07788 16.015 7.9935 16.0759 7.92668L17.1063 6.79145C17.0914 6.57466 17.0914 6.35711 17.1063 6.14032L16.0759 5.0051C16.015 4.93827 15.977 4.85389 15.9673 4.76413C15.9576 4.67437 15.9768 4.58387 16.022 4.50567L17.2072 2.46022C17.2524 2.38213 17.3213 2.32034 17.4039 2.28374C17.4866 2.24714 17.5788 2.23761 17.6672 2.25653L19.1679 2.57954C19.3492 2.45766 19.539 2.34772 19.7365 2.25141L20.2068 0.795738C20.2344 0.710122 20.2885 0.635407 20.3613 0.582287C20.4341 0.529166 20.5219 0.500363 20.6121 0.5H22.9825H22.9833ZM22.6703 1.35227H20.926L20.4403 2.85823L20.1128 3.0176C19.9518 3.09613 19.7964 3.18554 19.6476 3.28522L19.3449 3.48976L17.7921 3.15567L16.9199 4.66248L17.9845 5.83691L17.9588 6.19827C17.9465 6.37647 17.9465 6.5553 17.9588 6.7335L17.9845 7.09486L16.9182 8.26929L17.7912 9.7761L19.3441 9.44286L19.6468 9.64656C19.7955 9.74623 19.9509 9.83564 20.1119 9.91417L20.4394 10.0735L20.926 11.5795H22.6721L23.1595 10.0727L23.4861 9.91417C23.6469 9.83583 23.8021 9.74641 23.9504 9.64656L24.2523 9.44286L25.806 9.7761L26.6781 8.26929L25.6127 7.09486L25.6384 6.7335C25.6507 6.55502 25.6507 6.3759 25.6384 6.19742L25.6127 5.83606L26.679 4.66248L25.806 3.15567L24.2523 3.48806L23.9504 3.28522C23.8021 3.18534 23.6469 3.09592 23.4861 3.0176L23.1595 2.85908L22.6712 1.35227H22.6703ZM21.7982 3.90908C22.4785 3.90908 23.131 4.17846 23.6121 4.65795C24.0932 5.13744 24.3634 5.78778 24.3634 6.46589C24.3634 7.14399 24.0932 7.79433 23.6121 8.27382C23.131 8.75332 22.4785 9.02269 21.7982 9.02269C21.1178 9.02269 20.4653 8.75332 19.9842 8.27382C19.5032 7.79433 19.2329 7.14399 19.2329 6.46589C19.2329 5.78778 19.5032 5.13744 19.9842 4.65795C20.4653 4.17846 21.1178 3.90908 21.7982 3.90908ZM21.7982 4.76135C21.3446 4.76135 20.9096 4.94093 20.5889 5.26059C20.2682 5.58026 20.088 6.01381 20.088 6.46589C20.088 6.91796 20.2682 7.35151 20.5889 7.67118C20.9096 7.99084 21.3446 8.17042 21.7982 8.17042C22.2517 8.17042 22.6867 7.99084 23.0074 7.67118C23.3282 7.35151 23.5083 6.91796 23.5083 6.46589C23.5083 6.01381 23.3282 5.58026 23.0074 5.26059C22.6867 4.94093 22.2517 4.76135 21.7982 4.76135Z" fill="white"/>
<path d="M15.1377 13.2273C15.2467 13.2273 15.3529 13.2623 15.441 13.3273C15.5291 13.3922 15.5946 13.4838 15.6279 13.5888L16.1944 15.369C16.4324 15.4867 16.66 15.619 16.8773 15.7679L18.686 15.3742C18.7926 15.3511 18.9037 15.3629 19.0033 15.4079C19.1029 15.4528 19.1858 15.5285 19.2401 15.6242L20.6677 18.1231C20.7222 18.2187 20.7453 18.3293 20.7336 18.439C20.722 18.5487 20.6761 18.6518 20.6028 18.7335L19.3617 20.1189C19.3797 20.3846 19.3797 20.6512 19.3617 20.9169L20.6028 22.3043C20.6761 22.386 20.722 22.4891 20.7336 22.5989C20.7453 22.7086 20.7222 22.8192 20.6677 22.9148L19.2401 25.4148C19.1857 25.5102 19.1027 25.5857 19.0031 25.6304C18.9035 25.6752 18.7925 25.6868 18.686 25.6637L16.8773 25.27C16.661 25.4179 16.4324 25.5512 16.1955 25.6689L15.6279 27.4491C15.5946 27.5541 15.5291 27.6457 15.441 27.7106C15.3529 27.7756 15.2467 27.8106 15.1377 27.8106H12.2825C12.1735 27.8106 12.0673 27.7756 11.9792 27.7106C11.891 27.6457 11.8256 27.5541 11.7922 27.4491L11.2268 25.67C10.9895 25.5526 10.7606 25.4186 10.5418 25.2689L8.73419 25.6637C8.62755 25.6867 8.51644 25.6749 8.41685 25.63C8.31727 25.5851 8.23435 25.5093 8.18005 25.4137L6.75249 22.9148C6.69797 22.8192 6.67488 22.7086 6.68654 22.5989C6.69821 22.4891 6.74402 22.386 6.81737 22.3043L8.05852 20.9169C8.04054 20.6519 8.04054 20.386 8.05852 20.121L6.81737 18.7335C6.74402 18.6518 6.69821 18.5487 6.68654 18.439C6.67488 18.3293 6.69797 18.2187 6.75249 18.1231L8.18005 15.6231C8.2345 15.5277 8.31748 15.4522 8.41705 15.4074C8.51663 15.3627 8.62766 15.351 8.73419 15.3742L10.5418 15.769C10.7602 15.62 10.9888 15.4856 11.2268 15.3679L11.7933 13.5888C11.8265 13.4841 11.8917 13.3928 11.9794 13.3279C12.067 13.2629 12.1728 13.2277 12.2815 13.2273H15.1366H15.1377ZM14.7607 14.269H12.6595L12.0745 16.1096L11.68 16.3044C11.486 16.4003 11.2988 16.5096 11.1197 16.6314L10.755 16.8814L8.88457 16.4731L7.83398 18.3148L9.11632 19.7502L9.08542 20.1919C9.07062 20.4097 9.07062 20.6282 9.08542 20.846L9.11632 21.2877L7.83192 22.7231L8.88354 24.5648L10.754 24.1575L11.1186 24.4064C11.2978 24.5282 11.485 24.6375 11.6789 24.7335L12.0734 24.9283L12.6595 26.7689H14.7627L15.3498 24.9273L15.7433 24.7335C15.937 24.6378 16.1239 24.5285 16.3026 24.4064L16.6662 24.1575L18.5377 24.5648L19.5882 22.7231L18.3049 21.2877L18.3358 20.846C18.3506 20.6279 18.3506 20.409 18.3358 20.1908L18.3049 19.7491L19.5893 18.3148L18.5377 16.4731L16.6662 16.8794L16.3026 16.6314C16.1239 16.5094 15.937 16.4001 15.7433 16.3044L15.3498 16.1106L14.7617 14.269H14.7607ZM13.7101 17.3939C14.5296 17.3939 15.3155 17.7232 15.895 18.3092C16.4745 18.8953 16.8001 19.6901 16.8001 20.5189C16.8001 21.3477 16.4745 22.1426 15.895 22.7286C15.3155 23.3147 14.5296 23.6439 13.7101 23.6439C12.8906 23.6439 12.1046 23.3147 11.5251 22.7286C10.9457 22.1426 10.6201 21.3477 10.6201 20.5189C10.6201 19.6901 10.9457 18.8953 11.5251 18.3092C12.1046 17.7232 12.8906 17.3939 13.7101 17.3939ZM13.7101 18.4356C13.1637 18.4356 12.6398 18.6551 12.2535 19.0458C11.8671 19.4365 11.6501 19.9664 11.6501 20.5189C11.6501 21.0715 11.8671 21.6014 12.2535 21.9921C12.6398 22.3828 13.1637 22.6023 13.7101 22.6023C14.2564 22.6023 14.7804 22.3828 15.1667 21.9921C15.553 21.6014 15.7701 21.0715 15.7701 20.5189C15.7701 19.9664 15.553 19.4365 15.1667 19.0458C14.7804 18.6551 14.2564 18.4356 13.7101 18.4356Z" fill="white"/>
<path fill-rule="evenodd" clip-rule="evenodd" d="M6.21215 7.0373C5.0987 7.0373 4.19607 7.94508 4.19607 9.06488V28.791C4.19607 29.9108 5.0987 30.8186 6.21215 30.8186H34.9904C36.1038 30.8186 37.0064 29.9108 37.0064 28.791V9.06488C37.0064 7.94508 36.1038 7.0373 34.9904 7.0373H30.0925C29.7536 7.0373 29.4789 6.76099 29.4789 6.42014C29.4789 6.07929 29.7536 5.80298 30.0925 5.80298H34.9904C36.7816 5.80298 38.2338 7.26338 38.2338 9.06488V28.791C38.2338 30.5925 36.7816 32.0529 34.9904 32.0529H6.21215C4.42087 32.0529 2.96875 30.5925 2.96875 28.791V9.06488C2.96875 7.26338 4.42087 5.80298 6.21215 5.80298H13.8101C14.149 5.80298 14.4237 6.07929 14.4237 6.42014C14.4237 6.76099 14.149 7.0373 13.8101 7.0373H6.21215Z" fill="white"/>
<path fill-rule="evenodd" clip-rule="evenodd" d="M0.0546875 34.7044C0.0546875 34.2651 0.422694 33.9089 0.876654 33.9089H40.331C40.785 33.9089 41.153 34.2651 41.153 34.7044C41.153 35.1437 40.785 35.4998 40.331 35.4998H0.876654C0.422694 35.4998 0.0546875 35.1437 0.0546875 34.7044Z" fill="white"/>
</svg>
